<?xml version="1.0" standalone="no"?>
<!DOCTYPE svg PUBLIC "-//W3C//DTD SVG 20010904//EN"
 "http://www.w3.org/TR/2001/REC-SVG-20010904/DTD/svg10.dtd">
<svg version="1.0" xmlns="http://www.w3.org/2000/svg"
 width="1778.000000pt" height="1778.000000pt" viewBox="0 0 1778.000000 1778.000000"
 preserveAspectRatio="xMidYMid meet">
<metadata>
Created by potrace 1.14, written by Peter Selinger 2001-2017
</metadata>
<g transform="translate(0.000000,1778.000000) scale(0.100000,-0.100000)"
fill="#000000" stroke="none">
<path d="M13280 16481 c0 -6 -10 -10 -22 -8 -15 1 -22 -3 -20 -11 1 -8 -2 -11
-8 -7 -6 3 -8 11 -5 16 4 5 1 9 -4 9 -6 0 -11 -7 -11 -15 0 -12 -5 -13 -17 -7
-19 9 -25 9 -61 -3 -18 -6 -20 -10 -10 -16 10 -7 9 -9 -4 -9 -10 0 -18 5 -18
11 0 5 -5 7 -10 4 -6 -4 -8 -10 -6 -14 3 -3 -4 -7 -14 -7 -12 0 -16 5 -12 15
5 14 4 14 -10 1 -9 -8 -14 -18 -12 -22 3 -4 -10 -8 -28 -10 -18 -2 -33 -8 -33
-15 0 -6 -3 -15 -7 -19 -4 -3 -6 3 -3 15 2 11 0 21 -6 21 -5 0 -9 -7 -9 -16 0
-12 -7 -15 -25 -12 -20 4 -23 2 -15 -7 9 -10 3 -11 -25 -5 -33 7 -35 7 -30
-13 2 -12 2 -16 -1 -9 -3 6 -11 9 -16 6 -6 -4 -8 -3 -5 3 3 5 -1 10 -9 10 -8
0 -13 -6 -10 -13 3 -7 -2 -15 -10 -18 -8 -3 -14 -2 -14 3 0 9 -113 7 -128 -3
-6 -4 -9 -14 -6 -24 4 -13 3 -13 -7 2 -11 18 -12 18 -25 -5 -8 -15 -13 -18
-14 -9 0 13 -1 13 -10 0 -5 -8 -10 -10 -10 -4 0 7 -7 15 -16 18 -15 6 -15 4
-3 -10 13 -16 12 -16 -11 -4 -23 12 -24 12 -11 -4 12 -14 12 -16 -3 -10 -9 3
-16 10 -16 15 0 5 -5 9 -11 9 -5 0 -8 -4 -4 -9 3 -5 1 -13 -5 -16 -6 -4 -9 -1
-8 6 4 16 -69 21 -79 6 -3 -6 -1 -7 5 -3 18 11 14 0 -5 -15 -9 -8 -14 -9 -11
-4 4 6 3 17 -3 25 -7 13 -9 12 -9 -2 0 -10 -5 -18 -11 -18 -5 0 -7 -5 -3 -12
4 -7 3 -8 -5 -4 -9 6 -9 11 -1 21 8 10 8 15 -2 21 -7 4 -10 4 -6 -1 4 -4 1
-14 -7 -21 -17 -17 -29 -18 -19 -2 4 7 3 8 -4 4 -7 -4 -12 -15 -12 -24 0 -13
-2 -13 -16 4 -11 13 -14 14 -11 3 3 -9 -1 -16 -9 -16 -7 0 -11 4 -8 8 2 4 0
10 -6 14 -9 6 -14 -8 -11 -28 1 -5 -3 -5 -9 -2 -6 4 -9 12 -7 19 3 6 -3 12
-13 12 -10 0 -16 -6 -13 -13 3 -7 0 -13 -5 -13 -6 0 -13 8 -15 18 -4 14 -5 14
-6 -3 -1 -12 -4 -16 -9 -9 -8 14 -94 26 -86 12 3 -4 9 -6 14 -3 5 3 11 2 14
-3 2 -4 -6 -8 -20 -8 -15 0 -24 6 -25 16 0 10 -2 11 -6 2 -4 -10 -8 -10 -19
-1 -17 14 -19 -2 -1 -21 6 -8 2 -6 -10 4 -20 16 -25 17 -40 5 -9 -8 -14 -9
-10 -3 8 14 -15 25 -30 16 -5 -4 -13 -14 -16 -22 -4 -12 -6 -11 -6 3 -1 20
-51 25 -52 5 0 -7 -4 -4 -9 7 -5 11 -9 15 -9 8 -1 -6 -10 -9 -23 -5 -14 3 -19
2 -14 -6 4 -7 2 -12 -3 -12 -6 0 -11 5 -11 10 0 6 -8 10 -17 10 -14 0 -15 -2
-5 -9 11 -7 10 -10 -3 -15 -24 -9 -25 -8 -19 12 5 13 4 14 -4 3 -6 -8 -15 -10
-23 -5 -12 6 -12 5 0 -9 12 -15 11 -17 -3 -17 -11 0 -14 -5 -10 -12 4 -7 3 -8
-5 -4 -6 4 -9 11 -6 16 3 5 -13 8 -35 7 -34 -2 -40 -5 -36 -20 4 -15 2 -16
-10 -6 -8 6 -14 8 -14 3 0 -5 -5 -2 -10 6 -8 13 -10 12 -10 -3 0 -10 -4 -15
-10 -12 -5 3 -20 -3 -32 -14 -12 -12 -24 -18 -27 -15 -3 4 0 9 7 11 14 5 17
23 4 23 -5 0 -14 -10 -20 -22 -6 -13 -11 -17 -11 -10 -1 10 -4 10 -15 0 -8 -7
-12 -16 -10 -19 2 -3 -3 -6 -11 -6 -8 0 -12 4 -9 9 3 4 0 8 -5 8 -6 0 -11 -7
-11 -15 0 -8 -9 -15 -19 -15 -11 0 -23 -5 -26 -10 -4 -6 -11 -8 -16 -4 -5 3
-9 2 -8 -3 4 -20 -2 -24 -18 -12 -9 8 -14 9 -10 2 8 -13 -2 -45 -12 -38 -4 2
-20 -8 -35 -22 l-28 -26 6 24 c6 20 5 21 -4 6 -6 -10 -16 -14 -23 -10 -7 4 -6
-1 2 -10 12 -15 12 -17 -4 -10 -15 5 -17 3 -12 -12 7 -16 5 -16 -10 -4 -11 9
-14 10 -9 2 7 -12 3 -14 -34 -17 -8 -1 -14 -9 -12 -19 2 -9 -1 -16 -5 -15 -16
5 -65 -41 -57 -53 5 -9 2 -10 -9 -6 -9 3 -21 -1 -29 -11 -11 -15 -11 -15 3 -5
12 10 16 10 16 0 0 -7 -9 -14 -20 -14 -23 -2 -39 -22 -32 -40 2 -7 0 -15 -6
-18 -5 -4 -8 -1 -7 6 2 6 -3 14 -11 17 -9 3 -11 0 -7 -7 4 -7 2 -18 -4 -26 -6
-8 -8 -20 -4 -27 5 -10 4 -11 -7 0 -16 14 -33 16 -24 2 6 -9 -7 -14 -27 -11
-4 0 -4 -7 -1 -17 6 -15 4 -15 -9 -4 -14 11 -16 10 -11 -7 3 -13 1 -21 -6 -21
-7 0 -9 5 -5 12 4 7 3 8 -5 4 -9 -6 -9 -11 0 -22 6 -8 9 -17 5 -21 -3 -3 -6 0
-6 7 0 7 -3 10 -7 7 -3 -4 -13 -1 -21 6 -13 10 -14 9 -2 -12 11 -21 10 -23 -4
-18 -9 4 -16 2 -16 -3 0 -6 5 -10 12 -10 6 0 8 -3 5 -6 -4 -4 -14 -1 -24 7
-14 12 -16 12 -8 0 6 -11 4 -13 -10 -7 -14 5 -16 4 -6 -7 9 -11 8 -17 -3 -26
-11 -9 -16 -9 -22 0 -5 8 -3 9 6 4 9 -5 11 -4 6 4 -4 6 -12 9 -17 5 -5 -3 -7
-10 -4 -15 6 -8 -7 -13 -27 -10 -3 0 -5 -11 -3 -25 1 -13 -2 -27 -8 -31 -6 -3
-7 -1 -3 5 4 7 1 12 -8 12 -9 0 -16 -8 -16 -17 -1 -17 -2 -17 -14 0 -9 12 -16
14 -21 8 -3 -6 -1 -11 5 -11 6 0 8 -5 5 -10 -4 -6 -11 -8 -16 -4 -5 3 -16 0
-25 -6 -11 -10 -12 -16 -3 -27 7 -7 9 -16 5 -20 -3 -3 -6 -2 -6 4 0 16 -28 24
-36 11 -4 -6 -3 -8 3 -5 6 4 13 0 16 -8 5 -11 1 -12 -20 -4 -24 9 -25 8 -12
-8 12 -14 12 -16 0 -8 -11 6 -13 4 -7 -10 5 -14 4 -16 -8 -6 -21 17 -71 -6
-54 -26 6 -7 8 -16 4 -20 -3 -3 -6 -1 -6 5 0 7 -5 12 -11 12 -5 0 -8 -4 -4 -9
3 -6 -4 -8 -15 -6 -23 4 -26 -5 -7 -24 10 -11 9 -12 -3 -5 -8 5 -31 9 -50 10
-19 1 -29 0 -22 -3 19 -7 14 -23 -9 -23 -11 0 -18 -4 -14 -9 3 -5 1 -13 -5
-16 -6 -4 -9 -1 -8 5 2 7 -8 14 -22 16 -24 4 -24 4 -5 -11 20 -15 20 -15 0 -8
-11 3 -25 10 -32 15 -8 7 -10 3 -6 -11 3 -13 1 -21 -6 -21 -7 0 -10 4 -6 9 3
6 -3 9 -14 8 -11 0 -17 -5 -15 -9 3 -4 -2 -8 -10 -8 -9 0 -16 -5 -16 -12 0 -6
-3 -8 -6 -5 -4 4 -1 15 7 24 12 16 12 17 -1 7 -18 -12 -30 -12 -49 0 -10 6
-12 5 -7 -2 5 -8 -4 -12 -26 -12 -19 0 -40 -6 -47 -12 -9 -8 -11 -8 -8 -2 4 7
0 15 -9 18 -8 3 -13 2 -10 -3 3 -5 -1 -12 -10 -15 -8 -3 -13 -2 -10 3 3 5 -1
12 -10 15 -12 4 -15 2 -10 -9 3 -8 1 -15 -4 -15 -9 0 -14 15 -11 33 1 5 -3 6
-9 2 -5 -3 -10 -13 -10 -21 0 -8 -5 -14 -11 -14 -5 0 -7 5 -4 10 3 6 -3 10
-14 10 -12 0 -21 -6 -21 -12 0 -10 -3 -9 -9 1 -12 18 -85 25 -78 7 3 -7 -1
-13 -9 -13 -9 0 -13 6 -9 15 4 11 2 12 -8 4 -10 -9 -17 -8 -26 1 -11 10 -11 7
-1 -13 12 -23 12 -24 -4 -11 -9 8 -20 11 -23 7 -4 -4 -1 -12 7 -17 12 -9 12
-10 -3 -5 -10 3 -21 6 -23 6 -3 0 -2 6 2 13 4 6 -2 3 -13 -8 -11 -11 -18 -24
-15 -30 3 -5 -2 -4 -11 4 -19 15 -23 26 -5 15 7 -5 8 -3 3 6 -6 10 -13 7 -27
-11 l-19 -24 6 25 c5 22 4 23 -7 9 -7 -9 -19 -14 -27 -11 -9 3 -11 0 -6 -8 6
-9 3 -9 -14 -1 -17 10 -20 9 -14 -5 5 -14 3 -15 -17 -4 -12 7 -20 8 -17 3 3
-4 -2 -17 -10 -28 -15 -20 -15 -20 -9 1 5 16 2 20 -13 19 -11 -1 -26 -6 -34
-13 -7 -7 -18 -8 -23 -4 -4 4 -3 -1 4 -10 11 -14 10 -16 -7 -11 -12 3 -18 9
-15 14 3 5 1 9 -4 9 -6 0 -13 -7 -16 -16 -4 -10 -2 -13 6 -8 7 4 8 3 4 -5 -4
-6 -11 -9 -16 -6 -5 3 -11 1 -15 -5 -4 -7 -13 -6 -27 1 -18 10 -20 9 -14 -6 5
-15 4 -16 -8 -6 -10 9 -16 9 -21 1 -4 -6 -13 -9 -21 -6 -8 3 -14 1 -14 -4 0
-6 -5 -10 -11 -10 -5 0 -7 6 -3 13 6 9 5 9 -8 0 -8 -7 -19 -9 -23 -5 -5 4 -5
1 -1 -5 7 -12 -5 -18 -27 -14 -5 1 -11 -8 -14 -19 -3 -11 -9 -17 -14 -14 -5 3
-6 10 -3 16 4 7 2 8 -5 4 -6 -4 -8 -12 -5 -18 5 -7 -1 -9 -15 -5 -13 3 -20 3
-17 0 12 -12 -25 -41 -45 -36 -10 3 -19 0 -19 -6 0 -6 -5 -11 -11 -11 -5 0 -7
6 -3 13 5 9 4 9 -6 0 -7 -6 -20 -9 -29 -6 -13 4 -14 3 -1 -5 8 -6 19 -8 25 -4
5 3 4 -2 -4 -11 -11 -14 -16 -15 -29 -5 -13 10 -14 10 -8 1 5 -9 1 -13 -13
-13 -11 0 -23 -5 -27 -12 -5 -7 -3 -8 6 -3 9 5 11 4 6 -4 -6 -9 -11 -9 -24 1
-13 11 -14 11 -7 -1 6 -11 3 -13 -13 -9 -12 4 -25 1 -29 -4 -3 -6 -1 -8 5 -4
6 3 13 2 17 -4 3 -5 -3 -10 -14 -10 -12 0 -21 5 -21 12 0 6 -3 9 -6 6 -3 -4 0
-17 6 -30 10 -19 10 -21 -1 -10 -19 18 -32 15 -25 -5 4 -12 -1 -9 -15 7 -11
14 -18 19 -14 13 3 -7 2 -20 -3 -29 -8 -15 -10 -15 -15 0 -5 11 -3 15 5 10 7
-4 8 -3 4 5 -4 6 -12 9 -17 5 -5 -3 -7 -10 -4 -15 4 -5 1 -9 -5 -9 -6 0 -9 -4
-5 -9 3 -6 -5 -8 -19 -5 -18 3 -28 -2 -37 -18 -11 -21 -12 -21 -27 -2 -13 18
-14 17 -8 -11 4 -19 3 -25 -2 -16 -8 11 -11 11 -16 0 -3 -8 -3 -3 0 11 3 16 2
21 -4 12 -5 -7 -17 -10 -28 -7 -18 6 -18 6 -1 -5 9 -6 15 -16 11 -21 -3 -6
-12 -5 -22 3 -9 7 -13 8 -10 3 4 -6 -3 -17 -15 -25 -19 -11 -20 -11 -10 1 10
12 8 15 -6 15 -13 0 -17 -6 -13 -21 l5 -20 -23 20 -23 20 11 -21 c9 -16 7 -22
-9 -32 -11 -7 -19 -8 -19 -2 0 5 5 10 10 10 6 0 10 5 10 10 0 7 -6 7 -17 2
-10 -5 -24 -7 -30 -5 -7 3 -13 0 -13 -7 0 -6 5 -8 10 -5 6 3 10 1 10 -6 0 -6
-8 -9 -20 -6 -11 3 -18 1 -14 -4 8 -14 -30 -11 -46 4 -8 6 -6 1 5 -12 19 -23
19 -24 1 -14 -14 8 -26 6 -47 -6 -16 -9 -29 -20 -29 -25 0 -5 8 -2 18 5 15 13
16 12 4 -3 -10 -12 -20 -14 -42 -8 -24 7 -32 4 -55 -20 -17 -17 -33 -26 -43
-23 -10 4 -13 2 -8 -5 3 -6 1 -14 -5 -18 -8 -4 -9 -3 -5 4 7 11 -7 17 -29 12
-5 -1 -17 -2 -27 -3 -9 -1 -14 -5 -12 -9 3 -4 0 -8 -6 -8 -6 0 -8 -4 -5 -10 3
-5 0 -10 -9 -10 -8 0 -16 5 -18 12 -3 7 -7 5 -11 -6 -4 -9 -3 -15 2 -11 5 3
13 1 16 -5 4 -6 3 -10 -2 -9 -19 3 -34 -2 -29 -9 3 -5 -2 -9 -10 -9 -10 0 -11
4 -4 11 5 5 10 14 10 20 0 5 -9 -2 -21 -15 -17 -19 -22 -21 -29 -9 -7 11 -10
12 -10 2 0 -7 -5 -10 -12 -6 -7 4 -8 3 -4 -5 4 -6 13 -8 19 -5 7 4 9 4 5 -1
-4 -4 -2 -15 4 -24 10 -13 10 -14 -2 -3 -8 6 -20 12 -28 12 -8 0 -10 -5 -6
-12 6 -10 4 -10 -8 0 -14 11 -20 11 -37 0 -12 -7 -21 -17 -21 -21 0 -5 -7 -7
-15 -3 -8 3 -14 0 -12 -7 1 -7 -5 -12 -14 -12 -9 0 -24 -6 -33 -14 -13 -11
-19 -11 -33 0 -15 11 -16 11 -5 -1 17 -20 15 -29 -7 -25 -15 3 -18 0 -14 -12
5 -13 2 -15 -11 -10 -10 4 -15 3 -11 -3 3 -6 -3 -10 -14 -10 -12 0 -21 -5 -21
-11 0 -5 -5 -7 -12 -3 -8 5 -9 1 -5 -12 7 -18 7 -18 -8 0 -13 17 -15 18 -15 3
0 -9 -7 -17 -16 -17 -14 0 -15 2 -3 18 13 15 12 16 -3 3 -10 -7 -15 -17 -12
-22 5 -9 -10 -13 -30 -10 -5 1 -13 -3 -17 -10 -4 -7 -16 -13 -26 -14 -30 -2
-45 -15 -34 -29 7 -8 4 -12 -10 -13 -11 -1 -17 2 -15 6 3 4 -1 8 -8 8 -8 0
-12 -10 -10 -24 2 -20 0 -22 -12 -12 -10 8 -14 8 -14 0 0 -6 -5 -11 -11 -11
-5 0 -7 5 -3 12 4 7 3 8 -5 4 -6 -4 -8 -12 -5 -18 5 -7 -3 -9 -22 -5 -16 3
-23 4 -16 1 6 -3 12 -13 11 -22 0 -11 -2 -12 -6 -4 -2 6 -9 10 -14 6 -5 -3
-19 -7 -31 -9 -12 -3 -26 -10 -32 -16 -8 -8 -5 -8 12 0 14 8 22 8 22 1 0 -5
-8 -11 -17 -11 -10 -1 -25 -2 -33 -3 -19 -1 -60 -28 -60 -39 0 -4 5 -5 12 -1
7 4 8 3 4 -5 -5 -8 -12 -9 -19 -2 -8 6 -18 5 -30 -3 -24 -19 -21 -29 6 -16 21
11 21 10 3 -4 -18 -14 -21 -14 -39 2 -19 17 -20 16 -7 -8 11 -21 11 -23 -1
-13 -11 9 -18 8 -31 -1 -10 -7 -15 -16 -11 -19 3 -4 1 -7 -6 -7 -7 0 -9 -4 -6
-10 3 -5 2 -10 -4 -10 -5 0 -12 6 -14 13 -4 8 -6 7 -6 -3 -1 -9 -10 -16 -21
-17 -13 -1 -18 2 -14 9 4 7 2 8 -4 4 -6 -4 -9 -13 -6 -20 3 -8 0 -17 -7 -22
-8 -5 -10 -3 -4 6 6 9 4 11 -4 6 -7 -5 -10 -14 -7 -22 3 -7 0 -16 -6 -20 -6
-4 -8 -3 -4 4 3 6 2 13 -4 17 -6 3 -10 -3 -10 -16 0 -19 -2 -20 -17 -8 -15 13
-15 12 -4 -10 7 -13 9 -21 3 -17 -5 3 -21 -5 -36 -19 -14 -13 -26 -20 -26 -15
0 4 12 18 28 29 15 12 21 20 13 19 -20 -4 -53 -37 -55 -56 -2 -9 -9 -18 -17
-20 -11 -3 -11 -1 1 8 13 10 13 11 0 7 -8 -2 -16 -16 -17 -31 -1 -16 -5 -31
-9 -35 -4 -3 -4 4 -1 16 3 13 1 26 -4 29 -5 3 -9 2 -8 -3 3 -19 -2 -34 -10
-29 -5 4 -8 -5 -7 -18 2 -19 -1 -23 -18 -19 -15 3 -17 2 -8 -5 11 -7 11 -10
-2 -15 -8 -3 -17 -1 -20 6 -4 11 -10 -18 -7 -36 1 -5 -9 -5 -21 -2 -23 7 -23
7 -3 -9 16 -13 17 -15 3 -10 -17 6 -24 -10 -19 -39 1 -5 -3 -6 -8 -3 -5 4 -12
2 -16 -4 -4 -6 -10 -8 -15 -5 -5 3 -7 -4 -5 -16 3 -16 0 -19 -12 -15 -11 4
-14 2 -9 -9 7 -19 -3 -47 -14 -40 -5 3 -12 0 -16 -6 -4 -7 -3 -9 3 -6 6 4 13
0 16 -7 4 -11 0 -13 -15 -11 -20 4 -20 4 -2 -18 19 -21 19 -21 0 -7 -17 14
-18 13 -12 -6 5 -17 -1 -28 -26 -50 -18 -15 -26 -25 -17 -22 13 5 16 2 11 -14
-4 -15 -7 -17 -13 -6 -7 10 -9 9 -9 -4 0 -10 -6 -18 -12 -18 -9 0 -8 -4 2 -10
8 -5 11 -10 5 -10 -5 0 -3 -5 5 -10 12 -8 11 -10 -7 -10 -29 0 -38 -16 -16
-30 17 -11 17 -11 1 -6 -20 6 -35 -18 -33 -51 1 -12 -2 -20 -6 -17 -5 3 -9 0
-9 -6 0 -6 -4 -8 -10 -5 -6 3 -7 -1 -4 -9 3 -9 11 -13 18 -9 6 4 4 -2 -4 -13
-22 -29 -24 -30 -17 -12 3 10 2 20 -4 23 -5 4 -9 3 -8 -2 5 -27 -3 -64 -17
-77 -14 -15 -11 -20 9 -17 5 1 6 -3 2 -8 -3 -6 -12 -8 -21 -4 -8 3 -14 2 -13
-3 4 -22 -2 -35 -13 -28 -7 5 -8 3 -3 -6 4 -7 2 -16 -6 -21 -11 -7 -10 -9 4
-9 10 0 15 -5 12 -10 -4 -6 -11 -8 -16 -5 -5 3 -6 -1 -3 -10 5 -11 2 -14 -12
-9 -18 6 -18 6 0 -8 13 -11 16 -17 7 -22 -6 -4 -9 -12 -6 -17 3 -5 -1 -6 -9
-3 -11 4 -14 -1 -12 -20 2 -14 -1 -26 -6 -26 -5 0 -6 -5 -2 -12 5 -7 2 -9 -8
-5 -11 4 -18 -1 -21 -14 -5 -17 -3 -18 10 -7 15 12 15 11 4 -10 -7 -12 -17
-20 -23 -16 -6 4 -8 3 -4 -4 3 -6 2 -14 -4 -17 -8 -5 -7 -12 2 -23 10 -12 10
-14 1 -8 -8 4 -13 1 -13 -8 0 -9 -6 -16 -12 -16 -9 0 -8 -4 2 -10 14 -9 13
-11 -10 -14 -5 0 -15 -7 -22 -15 -8 -8 -8 -11 -1 -7 24 13 19 -20 -6 -42 -14
-13 -21 -21 -14 -18 7 4 11 -1 10 -13 -1 -16 -4 -18 -17 -8 -8 6 -12 8 -8 3 3
-4 -3 -17 -14 -28 -14 -14 -17 -23 -10 -30 7 -7 2 -18 -16 -34 -23 -20 -25
-25 -12 -34 14 -9 7 -15 -15 -10 -5 1 -7 -1 -3 -5 4 -4 0 -14 -8 -23 -9 -8
-14 -25 -12 -37 4 -17 1 -21 -13 -18 -13 4 -20 -2 -25 -21 -3 -14 -13 -26 -21
-26 -10 0 -13 -6 -9 -16 5 -12 2 -15 -10 -10 -13 5 -15 1 -12 -19 3 -13 2 -22
-3 -20 -4 3 -11 0 -14 -5 -4 -6 -18 -15 -31 -20 -16 -6 -22 -15 -18 -25 4 -10
2 -15 -7 -13 -8 2 -13 -3 -11 -11 2 -9 -3 -11 -14 -7 -14 5 -15 4 -4 -9 11
-13 10 -14 -4 -9 -10 4 -18 0 -22 -10 -3 -9 -11 -13 -17 -9 -6 4 -8 0 -5 -9 4
-8 3 -20 -2 -27 -5 -10 -9 -9 -13 4 -5 10 -3 14 5 9 7 -4 8 -3 4 5 -9 15 -26
5 -26 -16 0 -13 -3 -13 -15 -3 -13 11 -14 10 -10 -3 4 -8 1 -18 -6 -23 -7 -4
-10 -3 -6 3 3 5 0 10 -8 10 -11 0 -12 -5 -3 -21 10 -19 10 -20 -5 -7 -15 12
-21 9 -18 -11 0 -4 -8 -5 -19 -3 -13 3 -17 -1 -13 -11 3 -8 0 -14 -7 -14 -6 0
-8 -5 -4 -12 4 -7 3 -8 -4 -4 -6 4 -8 14 -5 23 6 15 5 16 -9 3 -8 -8 -13 -24
-11 -35 4 -16 3 -17 -6 -5 -9 12 -13 13 -20 2 -4 -8 -12 -13 -17 -13 -5 1 -9
-5 -9 -11 -1 -7 -6 -12 -13 -10 -7 1 -12 -4 -12 -10 0 -9 -4 -8 -10 2 -7 11
-10 11 -10 2 0 -7 -4 -11 -9 -8 -12 8 -33 -19 -23 -29 4 -4 -3 -2 -15 4 -20
10 -22 9 -16 -6 6 -15 4 -16 -9 -5 -13 10 -18 9 -29 -4 -10 -12 -10 -17 0 -23
9 -6 5 -10 -13 -13 -21 -4 -24 -3 -15 9 7 7 10 16 7 18 -3 3 -11 -7 -18 -21
-13 -23 -59 -43 -84 -36 -5 2 -3 -4 4 -13 11 -13 10 -15 -4 -9 -13 5 -15 2
-10 -12 6 -18 6 -18 -8 0 -14 18 -16 17 -42 -15 -16 -19 -25 -28 -21 -21 3 6
1 12 -4 12 -6 0 -11 -9 -11 -21 0 -12 -5 -19 -12 -16 -7 2 -19 -3 -26 -12 -8
-9 -11 -11 -8 -4 4 7 -1 11 -14 10 -23 -1 -26 -12 -7 -21 6 -4 2 -4 -10 -2
-13 2 -23 0 -23 -5 0 -5 5 -9 12 -9 6 0 9 -3 6 -6 -4 -3 -17 0 -30 7 -22 12
-22 11 -8 -6 14 -17 14 -18 -10 -5 -23 12 -24 12 -11 -4 13 -15 12 -17 -15
-12 l-29 5 25 -21 c15 -13 18 -19 8 -15 -11 4 -21 0 -27 -11 -8 -14 -12 -15
-23 -4 -11 11 -11 13 1 10 7 -2 16 4 18 12 4 13 3 13 -6 0 -6 -8 -11 -11 -11
-6 0 5 -6 3 -13 -3 -8 -6 -17 -9 -20 -6 -4 3 -5 2 -3 -1 2 -3 -4 -14 -15 -25
-11 -11 -17 -24 -14 -29 4 -6 -1 -7 -11 -3 -11 4 -15 2 -11 -4 4 -6 0 -16 -8
-23 -8 -7 -15 -9 -15 -5 0 4 -7 2 -15 -5 -8 -7 -12 -16 -9 -21 3 -5 0 -8 -8
-7 -7 2 -12 -2 -11 -8 1 -5 -12 -9 -28 -8 -16 1 -26 -2 -23 -7 3 -5 9 -7 13
-5 4 3 8 -1 8 -8 0 -8 -10 -12 -24 -10 -20 2 -22 0 -11 -19 10 -20 10 -21 -6
-8 -14 12 -17 12 -14 1 2 -8 -2 -14 -7 -15 -6 0 -18 -7 -27 -15 -15 -14 -15
-16 0 -35 16 -18 16 -19 0 -6 -15 11 -19 11 -24 -3 -3 -9 -10 -13 -16 -10 -5
3 -12 -3 -15 -15 -3 -12 -12 -21 -20 -21 -10 0 -13 -6 -9 -16 4 -10 2 -13 -6
-8 -8 5 -9 2 -4 -11 6 -16 4 -16 -11 -4 -15 12 -16 12 -10 -3 6 -16 -6 -23
-34 -20 -4 1 -5 -8 -2 -18 6 -23 -6 -26 -27 -7 -12 10 -12 9 -3 -3 6 -8 11
-19 11 -25 0 -14 -19 -35 -32 -35 -6 0 -4 5 4 11 13 9 13 10 0 6 -8 -2 -14
-12 -12 -22 3 -13 -1 -16 -12 -12 -14 5 -15 3 -6 -13 10 -19 6 -24 -12 -21 -5
0 -8 -6 -8 -15 0 -9 -5 -12 -13 -8 -6 4 -4 -2 6 -13 14 -16 14 -20 2 -20 -8 0
-12 4 -10 8 3 4 -2 9 -10 12 -10 4 -12 1 -8 -10 4 -11 2 -14 -5 -9 -8 4 -10 2
-6 -7 3 -8 0 -18 -5 -22 -6 -3 -9 -10 -6 -14 2 -5 -7 -7 -20 -5 -14 1 -23 -2
-19 -7 7 -12 -21 -40 -31 -31 -5 4 -5 1 -1 -6 6 -11 11 -11 24 0 13 10 13 8
-1 -9 -14 -16 -15 -22 -5 -27 7 -3 3 -3 -10 0 -12 3 -22 2 -21 -3 4 -23 -2
-35 -16 -29 -8 3 -14 2 -14 -2 2 -17 -14 -51 -22 -46 -5 3 -6 -3 -2 -12 4 -11
3 -15 -5 -10 -6 3 -13 2 -17 -4 -3 -5 2 -10 12 -10 15 0 15 -2 3 -9 -8 -6 -17
-8 -21 -5 -4 2 -6 -4 -5 -14 0 -9 -4 -16 -11 -15 -6 1 -14 -4 -17 -13 -3 -8
-2 -13 2 -10 5 3 9 -1 9 -8 0 -8 -6 -12 -12 -10 -7 3 -20 -8 -30 -23 -10 -15
-12 -22 -4 -15 19 18 33 15 15 -4 -9 -8 -13 -21 -9 -27 4 -7 -2 -5 -12 3 -17
14 -18 13 -12 -2 3 -10 2 -18 -3 -18 -6 0 -10 -8 -10 -17 0 -16 2 -16 11 -3 9
13 10 13 6 0 -2 -8 -10 -14 -17 -12 -8 2 -10 -3 -6 -14 5 -14 4 -15 -8 -5 -9
8 -16 8 -20 2 -4 -5 -2 -12 4 -16 7 -4 7 -12 0 -24 -5 -10 -6 -22 -2 -27 4 -5
-2 -2 -12 6 -17 13 -18 13 -11 1 6 -11 4 -13 -9 -8 -10 4 -15 3 -11 -4 4 -5 1
-17 -6 -25 -7 -9 -14 -23 -15 -32 -2 -8 -9 -19 -16 -23 -10 -7 -10 -9 0 -9 6
0 12 -5 12 -11 0 -6 -7 -8 -16 -5 -8 3 -13 2 -10 -3 3 -5 -3 -20 -14 -33 -15
-20 -16 -28 -7 -38 10 -10 8 -12 -6 -7 -15 6 -16 4 -6 -14 8 -15 8 -19 0 -15
-6 4 -11 2 -11 -4 0 -6 -5 -8 -11 -4 -7 4 -7 -1 1 -16 8 -15 8 -20 1 -16 -6 4
-15 -2 -19 -14 -4 -12 -11 -21 -15 -21 -18 2 -19 0 -7 -14 7 -9 10 -18 6 -22
-3 -3 -6 -1 -6 6 0 7 -5 9 -10 6 -8 -5 -8 -11 0 -20 8 -10 5 -18 -14 -33 -14
-10 -22 -23 -18 -27 4 -5 -2 -5 -12 -1 -17 6 -17 5 -5 -11 12 -14 12 -16 0 -8
-11 6 -13 4 -8 -9 5 -13 1 -19 -14 -23 -16 -4 -17 -8 -7 -14 10 -7 8 -9 -6 -9
-15 0 -16 -3 -6 -15 11 -13 10 -14 -6 -8 -16 6 -17 5 -6 -9 10 -13 10 -18 1
-24 -8 -4 -9 -3 -5 4 4 7 1 12 -9 12 -13 0 -14 -4 -5 -20 7 -14 7 -20 0 -20
-5 0 -10 6 -10 13 0 8 -4 7 -10 -3 -13 -20 -12 -33 2 -24 7 5 8 3 4 -5 -5 -7
-13 -10 -20 -8 -6 3 -12 -6 -12 -19 -1 -14 2 -21 9 -17 6 3 7 1 3 -6 -4 -6
-11 -9 -16 -6 -15 9 -22 -35 -8 -53 9 -12 6 -11 -10 3 -17 14 -23 16 -20 5 2
-8 8 -19 13 -23 6 -5 0 -7 -12 -4 -29 7 -29 -1 0 -13 18 -7 19 -9 3 -9 -14 -1
-17 -6 -13 -22 4 -15 2 -19 -9 -15 -10 4 -13 2 -7 -7 4 -6 6 -23 4 -36 -2 -16
1 -21 10 -16 8 5 10 4 5 -4 -4 -6 -17 -9 -29 -6 -12 2 -16 2 -9 -1 6 -3 10
-10 6 -15 -3 -5 -1 -9 5 -9 11 0 9 -26 -4 -37 -4 -4 -5 -3 -1 4 3 6 2 14 -3
18 -6 3 -8 -4 -6 -16 3 -13 10 -26 17 -31 7 -4 8 -8 3 -8 -6 0 -17 6 -24 13
-11 10 -11 8 -2 -10 6 -13 9 -23 5 -23 -3 0 2 -12 11 -27 10 -16 12 -22 4 -15
-16 15 -37 16 -22 1 14 -14 5 -41 -11 -32 -8 5 -8 3 0 -8 14 -17 10 -49 -8
-60 -10 -7 -10 -9 1 -9 11 0 9 -4 -5 -14 -17 -13 -17 -15 -2 -21 9 -4 19 -14
22 -22 5 -13 4 -13 -8 -4 -11 9 -15 8 -19 -3 -4 -9 -1 -18 5 -22 7 -5 8 -2 3
7 -5 8 -4 10 0 6 15 -13 14 -36 0 -31 -10 4 -12 -1 -8 -18 4 -18 3 -20 -6 -8
-6 8 -11 10 -11 5 0 -6 6 -17 13 -24 10 -11 10 -13 -1 -7 -15 9 -16 -8 -2 -35
8 -15 8 -19 -2 -17 -8 2 -12 -5 -10 -16 2 -10 -1 -15 -7 -11 -7 4 -8 0 -4 -11
4 -10 2 -15 -3 -11 -6 3 -8 -9 -6 -31 2 -28 1 -33 -7 -22 -9 13 -11 13 -11 -2
0 -9 5 -20 10 -23 6 -3 10 -12 9 -18 0 -9 -2 -9 -6 1 -2 6 -12 12 -21 12 -11
0 -13 -3 -6 -8 18 -11 10 -83 -10 -97 -13 -10 -14 -14 -4 -18 10 -4 10 -6 1
-6 -7 -1 -13 -10 -13 -21 0 -11 -6 -23 -14 -26 -8 -3 -13 -18 -12 -37 3 -38
-3 -59 -14 -52 -5 3 -12 0 -16 -6 -4 -7 -3 -9 3 -6 6 4 13 0 16 -7 4 -10 0
-14 -13 -11 -16 3 -17 0 -10 -25 7 -24 6 -28 -7 -23 -13 5 -15 1 -11 -21 3
-14 1 -29 -5 -33 -6 -3 -7 -1 -3 5 4 7 2 12 -3 12 -15 0 -14 -27 2 -33 6 -3 2
-6 -11 -6 -13 -1 -20 -5 -17 -11 4 -6 12 -7 18 -4 9 5 9 4 0 -6 -6 -7 -9 -20
-6 -29 4 -13 3 -14 -5 -1 -6 8 -8 18 -5 24 3 5 1 6 -5 2 -6 -3 -9 -15 -7 -26
2 -12 -5 -26 -18 -35 -12 -8 -17 -15 -11 -15 5 0 15 5 22 12 8 8 12 8 12 1 0
-11 -28 -38 -39 -38 -3 0 -5 -6 -3 -12 2 -7 -1 -13 -5 -13 -5 0 -9 -9 -10 -20
-1 -13 2 -18 9 -14 7 4 8 2 4 -5 -6 -9 -11 -9 -21 -1 -11 9 -12 7 -8 -11 4
-14 2 -20 -4 -16 -7 5 -9 -1 -5 -15 3 -14 2 -19 -6 -14 -7 4 -12 3 -12 -3 0
-5 6 -12 13 -14 9 -4 9 -6 -1 -6 -7 -1 -10 -6 -6 -13 5 -7 3 -8 -5 -4 -18 11
-43 -25 -29 -41 7 -9 7 -13 -1 -13 -6 0 -11 -9 -11 -21 0 -11 -4 -18 -9 -14
-5 3 -13 0 -17 -6 -4 -7 -3 -9 4 -5 6 3 13 2 17 -4 3 -5 0 -10 -7 -10 -7 0
-21 -11 -31 -25 -16 -23 -16 -24 0 -35 16 -10 15 -10 -4 -5 -18 5 -21 2 -18
-14 2 -14 -3 -22 -17 -27 -16 -5 -18 -8 -7 -15 12 -7 12 -9 0 -9 -8 0 -11 -7
-8 -20 4 -16 2 -18 -13 -10 -15 8 -17 6 -13 -10 3 -11 10 -17 16 -13 6 3 7 1
3 -6 -4 -6 -12 -9 -17 -6 -5 4 -9 1 -9 -5 0 -6 -4 -8 -10 -5 -7 4 -7 -2 -1
-18 8 -19 6 -28 -7 -40 -9 -8 -24 -12 -32 -10 -9 3 -11 1 -4 -4 7 -6 7 -15 -1
-30 -9 -18 -14 -20 -24 -10 -10 9 -11 8 -5 -6 3 -9 1 -23 -5 -31 -7 -8 -10
-18 -9 -24 2 -5 -10 -22 -27 -38 -17 -16 -22 -25 -12 -21 9 3 17 2 17 -3 0 -6
-5 -10 -11 -10 -8 0 -7 -6 2 -17 13 -15 12 -15 -7 -5 -16 9 -21 8 -21 -3 0 -8
4 -12 8 -9 4 2 11 0 14 -6 4 -6 3 -10 -2 -9 -20 3 -34 -2 -28 -11 3 -5 -1 -10
-10 -10 -9 0 -13 -5 -10 -10 4 -6 11 -7 17 -4 7 4 8 2 4 -5 -4 -6 -12 -9 -17
-6 -5 4 -9 -1 -9 -9 0 -19 -16 -21 -23 -3 -3 6 -4 2 -4 -10 1 -12 4 -20 7 -18
4 2 7 -2 7 -9 0 -8 -6 -12 -14 -9 -7 3 -13 0 -13 -6 0 -6 6 -11 13 -12 6 0 2
-4 -11 -10 -18 -7 -23 -15 -20 -36 2 -21 -1 -27 -13 -25 -12 2 -16 -4 -14 -23
3 -22 1 -24 -17 -14 -13 7 -18 7 -14 1 3 -6 2 -13 -4 -17 -6 -4 -7 -11 -4 -17
4 -6 -6 -20 -21 -32 -22 -17 -25 -25 -15 -31 9 -6 11 -4 5 5 -6 9 -4 11 5 5 9
-6 11 -4 5 5 -6 9 -4 11 4 6 9 -6 8 -13 -5 -27 -19 -21 -29 -25 -18 -7 4 7 3
8 -5 4 -7 -5 -11 -20 -9 -34 2 -17 -2 -26 -10 -25 -12 3 -15 -7 -13 -37 0 -10
-1 -11 -5 -2 -9 20 -27 14 -21 -9 5 -17 3 -18 -10 -7 -15 12 -15 10 -3 -12 12
-23 12 -24 -4 -11 -14 12 -16 12 -10 -3 4 -11 2 -16 -7 -14 -9 2 -13 -4 -11
-16 2 -10 -1 -15 -7 -12 -5 4 -13 1 -17 -5 -4 -7 -3 -9 3 -6 6 4 13 1 16 -7 3
-8 -1 -13 -11 -12 -11 1 -17 -6 -16 -20 0 -16 -5 -20 -20 -17 -13 3 -17 1 -10
-4 10 -7 11 -41 2 -47 -2 -1 -14 -8 -28 -14 -14 -7 -17 -11 -8 -8 9 3 19 -1
22 -9 3 -9 -1 -12 -15 -10 -11 2 -17 1 -15 -4 3 -4 1 -13 -4 -21 -5 -9 -5 -19
2 -27 8 -10 7 -12 -5 -8 -15 6 -30 -8 -33 -33 -1 -6 3 -9 9 -6 7 3 3 -2 -7
-10 -18 -15 -15 -21 9 -16 5 1 2 -7 -8 -18 -9 -10 -14 -22 -10 -27 5 -4 2 -5
-5 -1 -11 6 -11 11 0 24 12 15 11 16 -5 3 -9 -8 -15 -16 -13 -18 3 -3 1 -16
-5 -30 -5 -13 -5 -22 -1 -19 5 3 9 -1 9 -9 0 -8 -4 -12 -9 -9 -4 3 -8 -2 -8
-11 0 -9 -4 -14 -9 -10 -5 3 -13 1 -16 -5 -4 -6 -1 -9 6 -8 8 2 14 -8 14 -24
1 -15 -3 -24 -8 -21 -4 3 -6 11 -4 17 3 7 -1 13 -8 13 -10 0 -11 -5 -5 -17 5
-9 5 -21 1 -28 -4 -7 -6 -25 -5 -41 1 -22 -2 -28 -12 -24 -20 7 -17 -7 4 -23
16 -13 16 -14 0 -8 -13 4 -18 1 -18 -11 0 -10 5 -14 13 -9 6 3 1 -4 -13 -17
-14 -13 -20 -20 -13 -15 10 6 12 5 7 -7 -3 -8 -12 -18 -20 -21 -8 -3 -14 -11
-14 -18 0 -10 2 -10 9 0 6 11 9 9 13 -6 4 -13 1 -19 -10 -18 -8 0 -17 -6 -19
-14 -4 -13 -3 -13 5 -1 8 11 10 8 9 -11 -1 -16 -7 -24 -14 -21 -7 3 -14 -1
-14 -8 -1 -8 -3 -21 -4 -29 -1 -8 -3 -21 -4 -28 0 -7 -5 -10 -11 -7 -6 4 -6
-3 0 -21 10 -25 9 -26 -6 -13 -16 13 -16 12 -5 -10 7 -13 9 -21 4 -18 -4 3
-14 -2 -22 -10 -12 -13 -11 -14 10 -9 21 6 22 5 8 -6 -9 -7 -14 -19 -11 -27 3
-8 0 -11 -6 -7 -6 3 -14 1 -18 -5 -4 -8 -3 -9 4 -5 7 4 12 2 12 -3 0 -6 -5
-11 -11 -11 -5 0 -7 -4 -4 -10 3 -5 1 -10 -5 -10 -6 0 -9 -4 -5 -9 3 -6 -3
-15 -12 -21 -16 -10 -16 -11 2 -5 16 5 15 1 -8 -23 -18 -19 -25 -32 -18 -36 6
-4 11 -12 11 -17 0 -6 -5 -7 -12 -3 -6 4 -8 3 -4 -4 3 -6 -2 -16 -11 -22 -15
-9 -14 -10 7 -5 24 7 24 6 -5 -20 -16 -15 -24 -23 -17 -20 17 9 13 -34 -5 -53
-7 -7 -9 -20 -6 -29 5 -12 3 -14 -8 -8 -9 6 -8 0 5 -19 15 -24 16 -28 3 -23
-9 3 -19 2 -22 -3 -4 -6 2 -10 12 -11 16 0 16 -1 -2 -8 -19 -8 -19 -8 0 -20
15 -9 16 -11 3 -7 -20 6 -34 -10 -16 -17 10 -4 10 -6 0 -6 -7 -1 -10 -5 -7
-11 3 -5 -2 -10 -12 -10 -14 0 -15 -2 -5 -9 8 -4 13 -11 13 -15 -1 -3 -1 -7 0
-8 8 -26 5 -36 -8 -31 -12 5 -12 7 -1 14 9 6 9 9 1 9 -16 0 -26 -17 -13 -25 5
-3 10 -11 10 -17 0 -7 -4 -7 -13 1 -11 8 -13 4 -12 -23 1 -18 5 -38 9 -45 4
-6 4 -11 -1 -10 -4 1 -15 1 -23 0 -13 -1 -13 -2 0 -11 13 -8 12 -11 -5 -25
-11 -9 -15 -14 -9 -11 7 3 14 -1 17 -8 4 -10 0 -14 -13 -11 -13 3 -17 -1 -13
-11 3 -8 13 -14 22 -15 12 0 11 -2 -4 -8 -11 -5 -24 -6 -29 -3 -5 3 -6 0 -2
-7 15 -24 14 -58 -2 -57 -18 1 -26 -42 -12 -60 9 -10 7 -11 -9 -7 -13 3 -21 1
-21 -6 0 -7 4 -10 9 -6 5 3 13 0 17 -6 4 -8 3 -9 -4 -5 -16 10 -34 -30 -36
-80 -1 -24 -5 -46 -9 -50 -3 -4 -5 3 -2 14 2 12 1 23 -3 26 -4 2 -8 -11 -9
-30 -1 -24 2 -32 10 -28 8 5 8 3 0 -7 -7 -7 -13 -21 -13 -32 0 -11 5 -16 13
-12 6 4 4 0 -5 -8 -10 -8 -15 -17 -11 -20 3 -4 1 -7 -7 -7 -10 0 -10 -3 0 -15
11 -13 10 -14 -4 -9 -19 7 -19 4 -6 -31 5 -14 6 -24 1 -21 -14 9 -20 -16 -9
-38 8 -14 7 -17 -3 -11 -9 6 -10 3 -6 -9 5 -13 3 -17 -7 -13 -14 6 -16 -16 -3
-29 4 -4 7 -12 7 -18 0 -6 -4 -5 -9 2 -6 10 -10 9 -14 -7 -3 -12 -1 -19 3 -16
5 3 11 1 15 -5 3 -5 -1 -10 -11 -10 -13 0 -14 -3 -5 -14 9 -11 9 -15 0 -18 -8
-3 -6 -9 5 -21 16 -16 16 -17 -6 -18 -23 -1 -23 -1 2 -9 19 -6 20 -8 6 -9 -17
-1 -17 -3 -3 -25 15 -23 15 -24 -6 -19 -20 4 -20 3 3 -11 23 -14 23 -15 5 -16
l-20 -1 20 -9 c15 -6 16 -9 4 -9 -12 -1 -15 -11 -13 -48 1 -27 -3 -51 -10 -55
-6 -5 -7 -8 -1 -8 12 0 14 -168 3 -186 -9 -14 25 -47 37 -37 4 5 5 2 1 -5 -5
-7 -13 -11 -20 -9 -9 4 -12 -27 -12 -123 1 -79 5 -127 11 -125 6 1 7 0 3 -2
-5 -3 -8 -11 -8 -19 0 -8 -6 -11 -18 -7 -15 5 -15 4 1 -8 18 -14 17 -16 -5
-44 -12 -16 -18 -26 -11 -22 15 10 24 -18 10 -32 -17 -17 -15 -54 3 -69 13
-11 13 -11 -1 -6 -27 9 -33 -15 -7 -25 17 -7 19 -10 6 -10 -12 -1 -18 -9 -18
-26 0 -14 5 -25 10 -25 6 0 10 -4 10 -10 0 -5 -6 -7 -13 -4 -10 3 -13 -5 -10
-32 1 -21 -2 -43 -8 -50 -7 -9 -5 -15 8 -23 10 -6 13 -11 7 -11 -6 0 -15 -10
-21 -22 -10 -24 -7 -51 6 -44 4 3 8 -1 8 -9 0 -8 -4 -12 -7 -10 -4 3 -7 -6 -7
-20 0 -15 4 -22 11 -18 6 3 6 0 -1 -8 -16 -16 -17 -59 -2 -59 6 0 3 -7 -5 -16
-20 -20 -21 -30 -1 -14 9 8 15 9 15 2 0 -6 -5 -14 -10 -17 -6 -4 -7 -12 -3
-18 11 -18 12 -38 2 -31 -5 3 -6 10 -3 16 4 6 2 8 -4 5 -11 -8 -5 -44 11 -65
7 -9 5 -11 -9 -6 -18 5 -18 5 0 -10 17 -14 16 -20 -5 -18 -9 1 -4 -36 6 -45 4
-5 5 -2 1 5 -4 6 -2 12 4 12 7 0 9 -7 6 -16 -3 -9 -6 -18 -6 -20 0 -3 -4 -3
-8 0 -5 3 -9 -1 -9 -9 0 -8 7 -15 14 -15 8 0 11 -5 8 -10 -4 -6 -10 -8 -14 -6
-4 3 -7 -9 -6 -25 1 -17 8 -35 16 -40 12 -8 7 -13 -12 -11 -3 1 -6 -5 -6 -13
0 -8 4 -12 8 -10 4 3 10 -2 13 -11 3 -8 2 -13 -3 -9 -17 10 -19 -20 -3 -38 15
-16 14 -17 -4 -12 -19 7 -19 6 0 -9 18 -15 15 -21 -9 -16 -5 1 -1 -8 10 -20
19 -21 19 -21 -1 -15 -19 7 -19 6 0 -9 18 -15 15 -21 -9 -16 -5 1 -1 -8 10
-20 13 -14 14 -19 4 -15 -11 4 -14 -5 -13 -45 0 -27 4 -53 9 -57 4 -5 5 -3 1
4 -3 6 -2 14 2 17 5 3 8 -7 7 -22 -1 -15 5 -36 14 -47 15 -18 15 -19 0 -7 -14
10 -18 10 -23 -3 -4 -11 -2 -14 6 -9 8 5 9 2 5 -10 -6 -14 -3 -15 16 -6 21 11
21 10 -2 -9 -15 -13 -18 -21 -9 -21 7 0 14 -10 15 -21 2 -21 1 -21 -13 -3 -14
18 -14 18 -7 -1 3 -11 11 -23 17 -27 7 -5 7 -8 1 -8 -6 0 -11 -10 -12 -22 0
-13 1 -17 4 -10 9 22 20 13 15 -13 -3 -16 0 -25 8 -25 9 0 9 -4 -1 -17 -12
-14 -12 -16 0 -8 11 6 13 3 9 -13 -4 -12 -1 -25 4 -29 6 -3 8 -1 4 5 -3 6 -2
13 3 16 11 7 9 -13 -3 -33 -6 -10 -5 -12 2 -7 7 4 12 1 12 -8 0 -15 12 -21 35
-16 5 1 1 -8 -9 -19 -19 -21 -19 -21 0 -22 10 0 14 -3 7 -6 -10 -3 -10 -7 0
-18 7 -7 17 -10 22 -7 6 2 4 -1 -2 -9 -7 -7 -13 -17 -13 -22 0 -4 6 -5 13 -1
9 6 9 4 -1 -8 -10 -13 -10 -18 -1 -24 8 -5 9 -3 4 7 -8 12 -6 12 9 0 12 -10
14 -17 6 -25 -7 -7 -4 -16 12 -28 16 -13 17 -16 5 -12 -13 5 -16 2 -11 -10 3
-9 11 -13 17 -9 7 4 8 0 4 -11 -6 -14 -3 -17 8 -12 9 3 14 2 10 -3 -3 -5 1
-12 7 -15 7 -3 2 -3 -12 0 -22 4 -23 3 -7 -6 15 -10 16 -14 5 -28 -10 -14 -9
-14 8 1 21 17 21 17 19 -8 -2 -14 3 -32 11 -39 8 -8 14 -22 14 -31 0 -9 5 -13
11 -10 6 4 9 0 7 -11 -2 -13 2 -18 12 -16 12 3 13 1 3 -9 -16 -16 -17 -33 -1
-23 8 5 9 2 5 -9 -4 -12 -1 -17 11 -18 10 0 12 -3 5 -6 -10 -3 -9 -8 3 -20 8
-8 13 -20 11 -26 -2 -6 9 -22 25 -37 22 -21 25 -29 15 -40 -10 -10 -8 -10 9
-2 16 9 21 8 21 -3 0 -8 -5 -11 -10 -8 -6 3 -7 1 -3 -5 4 -7 13 -12 21 -12 7
0 16 -7 19 -16 6 -15 4 -15 -11 -3 -17 13 -17 13 -1 -6 9 -11 18 -24 19 -30 2
-5 10 -8 18 -7 13 3 13 1 1 -13 -11 -14 -11 -16 1 -13 8 2 13 -4 13 -15 -1
-10 5 -17 17 -17 12 0 19 -7 19 -20 0 -11 7 -20 16 -20 8 0 13 -4 9 -9 -3 -5
0 -13 6 -16 5 -4 8 -14 4 -22 -5 -14 -3 -14 12 -2 11 9 14 10 9 1 -4 -7 -1
-15 8 -18 9 -3 16 -12 16 -19 0 -8 5 -17 12 -21 8 -5 9 -2 5 10 -4 10 -3 15 3
11 6 -3 10 -12 10 -18 0 -7 9 -13 20 -13 11 0 20 5 20 10 0 5 3 6 6 3 4 -4 1
-14 -7 -23 -11 -13 -11 -15 2 -14 7 1 27 2 43 1 23 -1 27 -4 18 -13 -7 -7 -12
-16 -12 -21 0 -5 7 -1 16 8 10 9 20 13 23 8 3 -4 13 -9 21 -11 8 -2 16 -7 18
-12 2 -5 10 -6 18 -3 8 3 22 -3 30 -13 15 -18 15 -18 9 0 -6 20 -6 20 16 0 12
-10 19 -14 16 -7 -4 6 -3 15 3 18 6 4 10 3 9 -2 -3 -19 2 -31 17 -37 12 -5 14
-3 8 7 -5 7 -2 5 8 -5 19 -21 34 -23 41 -5 3 7 6 4 6 -6 1 -11 6 -15 12 -11 6
3 15 0 20 -7 6 -10 9 -11 9 -1 0 6 4 12 10 12 5 0 7 -7 4 -15 -5 -11 -2 -13
12 -8 12 4 15 3 10 -5 -5 -8 0 -12 12 -12 11 0 22 -7 26 -15 7 -18 26 -16 43
5 11 13 12 13 7 -3 -5 -13 1 -18 25 -23 17 -4 31 -10 31 -15 0 -5 14 -9 31 -9
21 0 28 -4 23 -12 -5 -9 -2 -9 9 1 9 7 17 10 17 5 0 -5 4 -15 9 -23 8 -13 12
-13 27 0 15 12 17 12 9 0 -6 -11 -4 -13 7 -8 9 3 23 -2 33 -13 9 -10 24 -16
34 -13 11 3 22 0 26 -7 5 -8 10 -8 21 1 10 8 14 8 14 0 0 -6 13 -11 29 -11 18
0 31 -6 35 -16 4 -9 9 -14 13 -11 3 4 13 1 21 -6 13 -9 14 -9 8 0 -5 9 -2 11
8 7 9 -3 12 -12 8 -22 -5 -15 -4 -15 11 -3 11 9 17 10 17 2 0 -6 5 -11 11 -11
5 0 8 4 4 9 -3 5 0 13 6 17 7 4 9 3 6 -3 -4 -6 5 -19 19 -28 15 -9 23 -12 20
-6 -4 6 0 11 9 11 9 0 13 -4 10 -10 -3 -5 3 -10 14 -10 10 0 22 6 25 13 3 6 3
1 -1 -13 -5 -22 -4 -23 11 -11 14 11 16 11 16 -2 0 -9 4 -19 10 -22 6 -4 7 1
3 12 -6 15 -4 16 9 6 8 -7 19 -9 23 -5 5 4 6 2 2 -3 -3 -6 3 -17 14 -23 17
-11 21 -9 29 10 5 13 9 18 9 12 1 -7 8 -15 17 -18 12 -5 15 -2 10 11 -5 15 -4
15 9 -1 10 -13 15 -15 15 -6 0 9 6 8 22 -6 12 -10 18 -13 13 -5 -6 11 -3 13
14 8 16 -4 21 -2 18 7 -6 14 28 15 40 1 5 -4 3 -5 -4 -1 -6 3 -14 2 -17 -3 -3
-5 41 -8 102 -7 85 1 108 4 114 16 5 12 7 11 7 -4 1 -19 1 -19 14 -1 11 14 16
15 22 5 5 -9 4 -11 -3 -6 -18 11 -14 0 5 -15 14 -11 15 -11 9 -1 -6 10 -3 13
10 10 11 -2 25 3 32 12 12 13 13 13 8 -2 -4 -14 0 -17 19 -16 13 1 21 6 19 10
-3 5 -11 5 -17 2 -7 -4 -9 -3 -4 1 13 15 49 17 41 3 -6 -10 -4 -10 8 0 11 8
50 14 107 15 49 2 93 6 97 10 11 10 26 9 19 -2 -7 -12 42 -8 53 4 4 4 2 6 -3
2 -6 -3 -17 -1 -25 5 -12 8 -12 9 2 4 10 -3 20 -1 23 5 4 5 11 7 16 3 5 -3 7
-9 4 -14 -3 -4 2 -11 11 -14 8 -3 12 -2 9 4 -3 6 1 10 10 10 10 0 13 5 9 13
-6 8 -3 8 9 -1 9 -8 21 -11 27 -7 5 3 10 -1 10 -10 0 -9 5 -13 10 -10 6 4 7
11 4 17 -4 6 -2 8 4 4 5 -3 12 -3 15 1 2 5 2 3 1 -4 -2 -6 4 -14 12 -17 9 -3
12 -1 9 4 -4 6 9 10 32 10 28 0 34 3 23 10 -9 6 -10 10 -3 10 21 0 24 -18 6
-30 -17 -11 -17 -11 0 -6 9 3 24 9 34 13 11 4 14 3 9 -5 -5 -8 -2 -10 8 -6 9
3 14 9 12 13 -2 3 13 5 35 3 27 -3 39 0 39 9 0 7 3 9 6 6 4 -4 2 -12 -4 -20
-8 -10 -6 -13 8 -13 10 0 17 3 14 7 -4 8 38 21 45 14 2 -3 -1 -5 -7 -5 -7 0
-12 -4 -12 -8 0 -4 9 -8 19 -8 11 0 17 4 15 8 -3 4 2 8 11 8 10 0 13 5 9 13
-6 8 -3 8 9 -1 9 -8 21 -11 27 -7 5 3 10 -1 10 -10 0 -9 5 -13 10 -10 6 4 7
11 4 17 -4 6 -2 8 4 4 5 -3 12 -3 15 1 2 5 2 3 1 -4 -2 -6 4 -14 12 -17 9 -3
12 -1 9 4 -4 6 9 10 32 10 28 0 34 3 23 10 -9 6 -10 10 -3 10 20 0 24 -18 6
-29 -10 -6 -13 -11 -8 -11 6 0 21 8 34 17 14 9 21 12 18 6 -4 -6 0 -14 9 -17
8 -3 12 -2 9 4 -3 6 1 10 10 10 10 0 13 5 9 13 -6 8 -3 8 9 -1 9 -8 21 -11 27
-7 5 3 10 -1 10 -10 0 -9 5 -13 10 -10 6 4 7 11 4 17 -4 6 -2 8 4 4 5 -3 12
-3 15 1 2 5 2 3 1 -4 -2 -6 4 -14 12 -17 9 -3 12 -1 9 4 -4 6 9 10 32 10 28 0
34 3 23 10 -9 6 -10 10 -3 10 21 0 24 -18 6 -30 -18 -12 -7 -10 31 6 13 5 17
4 12 -4 -5 -8 -2 -10 8 -6 9 3 14 9 12 13 -2 3 13 5 35 3 27 -3 39 0 39 9 0 7
3 9 6 6 4 -4 2 -12 -4 -20 -8 -10 -6 -13 8 -13 10 0 17 3 14 7 -4 8 38 21 45
14 2 -3 -1 -5 -7 -5 -7 0 -12 -4 -12 -8 0 -4 9 -8 19 -8 11 0 17 4 15 8 -3 4
2 8 11 8 10 0 13 5 9 13 -6 8 -3 8 9 -1 9 -8 21 -11 27 -7 5 3 10 -1 10 -10 0
-9 5 -13 10 -10 6 4 7 11 4 17 -4 6 -2 8 4 4 5 -3 12 -3 15 1 2 5 2 3 1 -4 -2
-6 4 -14 12 -17 9 -3 12 -1 9 4 -4 6 9 10 32 10 28 0 34 3 23 10 -9 6 -10 10
-3 10 20 0 24 -18 6 -29 -10 -6 -13 -11 -8 -11 6 0 21 8 34 17 14 9 21 12 18
6 -4 -6 0 -14 9 -17 8 -3 12 -2 9 4 -3 6 1 10 10 10 10 0 13 5 9 13 -6 8 -3 8
9 -1 9 -8 21 -11 27 -7 5 3 10 -1 10 -10 0 -9 5 -13 10 -10 6 4 7 11 4 17 -4
6 -2 8 4 4 5 -3 12 -3 15 1 2 5 2 3 1 -4 -2 -6 4 -14 12 -17 9 -3 12 -1 9 4
-4 6 9 10 32 10 28 0 34 3 23 10 -9 6 -10 10 -3 10 21 0 24 -18 6 -30 -17 -11
-17 -11 0 -6 9 3 24 9 34 13 11 4 14 3 9 -5 -5 -8 -2 -10 8 -6 9 3 14 9 11 13
-2 4 10 5 27 3 23 -4 29 -2 23 8 -5 9 -4 11 3 6 7 -4 12 -14 12 -22 0 -8 5
-12 10 -9 6 4 7 11 4 17 -4 6 -2 8 4 4 5 -3 12 -3 15 1 2 5 2 3 1 -4 -2 -6 4
-14 12 -17 9 -3 12 -1 9 4 -4 6 9 10 32 10 28 0 34 3 23 10 -9 6 -10 10 -3 10
20 0 24 -18 6 -29 -25 -15 -7 -14 20 1 12 6 37 11 56 9 25 -2 31 0 26 11 -5 7
-5 10 0 6 4 -4 15 -2 23 5 13 10 14 9 8 -2 -6 -9 -5 -12 5 -9 8 3 13 12 11 19
-2 8 5 6 19 -6 19 -17 22 -18 16 -3 -7 19 12 21 25 4 4 -6 13 -4 22 3 10 8 16
9 16 3 0 -15 50 -8 61 9 5 8 9 10 9 4 0 -5 5 -3 10 5 7 11 10 11 10 2 0 -7 5
-10 10 -7 6 4 7 12 4 18 -5 9 -4 9 6 0 7 -6 19 -9 26 -6 8 3 14 -1 14 -8 0
-12 2 -12 9 -1 4 8 10 13 12 12 12 -4 38 14 32 23 -3 6 -1 7 6 3 9 -6 9 -11
-1 -24 -12 -14 -10 -14 12 -1 30 16 70 21 70 9 0 -5 -9 -7 -20 -5 -11 2 -22 0
-24 -4 -3 -4 7 -7 22 -5 15 1 38 3 52 3 19 1 22 3 10 10 -8 6 -18 7 -24 4 -5
-3 -6 -2 -3 4 3 5 20 8 37 5 20 -3 30 0 30 9 0 7 3 9 7 6 3 -4 12 1 20 11 8 9
11 11 7 3 -5 -9 -3 -12 4 -7 7 4 12 14 12 22 0 8 4 13 9 10 5 -3 12 1 15 10 4
10 14 14 26 11 12 -3 17 -1 14 5 -9 14 29 38 42 27 7 -6 16 -3 25 8 12 14 12
16 0 8 -10 -5 -12 -4 -7 3 4 7 15 12 24 12 18 1 62 29 46 31 -5 1 2 4 16 8 14
4 24 13 22 20 -1 7 2 10 8 6 6 -4 17 -1 25 5 8 6 19 9 25 5 6 -4 9 -1 8 6 -2
8 13 17 35 23 20 5 37 13 37 17 0 5 -8 6 -17 3 -15 -5 -16 -4 -3 5 8 6 23 11
32 11 9 0 20 5 24 12 4 7 3 8 -4 4 -7 -4 -12 -3 -12 2 0 6 7 12 15 16 8 3 15
1 15 -5 0 -5 6 -4 14 3 8 7 12 16 10 20 -2 4 1 10 7 14 7 4 9 3 5 -4 -3 -6 -2
-13 4 -17 5 -3 10 -1 10 4 0 13 28 41 58 58 16 10 22 10 26 0 4 -7 4 -2 2 11
-4 20 4 27 27 23 4 0 7 4 7 10 0 5 4 8 9 4 5 -3 16 4 24 15 7 11 17 17 20 13
4 -3 7 -1 7 5 0 7 5 12 11 12 6 0 17 6 25 14 11 11 11 16 1 19 -6 3 -1 6 12 6
17 1 22 5 17 17 -6 15 -4 15 11 3 10 -9 14 -9 10 -2 -5 8 1 15 18 19 14 3 25
10 25 16 0 5 -5 6 -12 2 -6 -4 -8 -3 -4 4 3 6 15 9 26 7 12 -2 18 0 15 6 -4 5
-1 9 4 9 6 0 10 5 8 12 -1 7 3 12 8 13 6 0 16 4 24 9 10 6 12 5 7 -2 -4 -8 -2
-10 7 -6 8 3 14 12 13 21 0 9 6 18 14 20 13 4 13 3 0 -7 -13 -10 -12 -11 3 -6
10 3 21 6 24 6 3 0 -1 8 -8 17 -8 9 -9 14 -2 10 18 -11 42 3 36 20 -4 11 -2
14 5 9 7 -4 12 -2 12 3 0 6 6 11 14 11 8 0 17 6 19 13 4 9 6 9 6 -1 1 -7 5
-11 11 -7 5 3 7 12 4 19 -3 9 1 13 13 13 10 -1 17 3 16 10 -1 6 4 14 13 17 10
4 13 2 8 -6 -4 -7 -3 -8 4 -4 7 4 12 13 12 21 0 8 5 17 12 21 6 4 8 3 5 -3 -4
-6 0 -14 9 -17 8 -3 13 -2 10 2 -2 4 5 19 16 32 11 14 17 19 13 13 -3 -7 -1
-13 4 -13 6 0 11 9 11 20 0 12 5 17 13 14 7 -2 24 5 37 16 13 11 29 19 36 16
8 -3 10 3 6 16 -3 15 -1 19 6 14 7 -4 15 0 18 9 6 13 8 14 15 3 6 -9 9 -6 9
12 0 19 2 22 10 10 8 -12 10 -12 16 3 3 9 10 15 14 12 5 -3 11 -1 15 5 3 5 0
10 -7 10 -10 0 -9 3 2 10 9 6 17 5 22 -3 6 -9 8 -8 8 2 0 7 6 11 14 8 11 -4
13 -1 9 10 -5 12 -2 15 10 10 11 -4 14 -2 10 9 -3 9 2 14 17 14 15 0 20 5 17
14 -4 11 -1 13 10 9 12 -5 14 -3 8 8 -7 12 -6 12 7 1 14 -11 18 -10 28 9 10
17 14 19 21 8 7 -11 9 -11 9 3 0 9 5 20 12 24 7 5 9 2 4 -7 -4 -8 0 -5 9 6 9
11 17 19 18 17 1 -2 14 -1 29 3 16 4 26 11 23 15 -3 5 0 12 6 16 8 4 9 3 5 -4
-4 -7 -2 -12 3 -12 6 0 11 5 11 12 0 6 3 8 7 5 3 -4 13 2 21 14 12 17 16 18
30 7 10 -8 13 -9 9 -1 -4 6 -3 14 3 18 5 3 10 -2 11 -12 0 -16 1 -16 8 2 5 11
6 24 3 29 -3 5 0 6 6 2 6 -4 22 0 35 9 13 8 27 12 32 8 4 -5 5 0 2 9 -4 12 -2
15 7 12 8 -3 17 0 21 5 3 6 10 9 15 6 5 -3 7 3 5 13 -2 11 3 19 10 19 8 0 12
-4 10 -8 -3 -4 6 -2 19 4 14 7 20 14 15 18 -6 3 -2 12 7 20 12 9 15 10 10 2
-4 -7 -3 -13 3 -13 5 0 13 5 16 11 4 6 14 8 22 4 14 -5 14 -3 2 12 -12 15 -12
16 4 10 9 -4 17 -2 17 4 0 6 7 8 16 5 12 -5 15 -2 10 10 -6 15 -4 15 11 3 15
-13 16 -12 11 9 -5 18 -4 21 7 12 9 -7 15 -8 19 -1 4 6 14 7 24 4 13 -4 13 -2
-3 11 -16 13 -17 15 -2 10 10 -4 17 -1 17 6 0 9 4 9 17 -1 11 -9 14 -10 9 -2
-4 7 -2 21 3 30 8 14 10 15 11 3 0 -13 2 -13 9 0 6 8 7 18 5 22 -3 4 2 8 10 8
9 0 16 7 16 16 0 9 5 12 13 8 9 -5 9 -4 0 6 -10 11 -9 16 5 26 9 7 18 17 18
23 1 6 2 16 3 22 0 5 6 7 11 4 6 -3 10 3 10 14 0 12 5 21 11 21 5 0 7 5 4 10
-3 6 0 10 7 10 9 0 9 3 -2 10 -12 8 -10 10 9 10 19 0 22 3 13 12 -9 9 -7 15 6
25 9 8 11 12 5 8 -21 -10 -3 24 19 36 15 8 17 13 7 25 -11 14 -3 19 26 15 6
-1 1 6 -10 15 -16 13 -16 15 -3 11 10 -3 20 -2 23 3 4 6 1 10 -5 10 -7 0 -6 5
2 14 7 8 18 11 23 8 6 -3 3 3 -5 13 -9 11 -10 16 -2 11 8 -5 12 0 12 16 0 13
6 30 13 37 10 11 9 13 -3 7 -9 -5 -9 -2 2 7 10 8 15 17 11 20 -3 4 -1 7 6 7 7
0 10 10 7 24 -3 19 -1 23 10 19 16 -6 16 17 -1 29 -6 4 -2 8 9 8 13 0 17 5 13
20 -3 11 -1 22 4 25 4 3 5 13 2 23 -6 15 -5 16 12 2 17 -14 18 -14 6 9 -8 15
-9 21 -2 17 11 -7 13 -2 14 46 1 21 4 25 14 16 10 -8 12 -7 8 5 -4 8 -1 18 4
22 6 3 8 11 5 17 -4 6 -10 5 -16 -3 -8 -11 -9 -11 -5 1 2 8 11 15 19 14 9 -1
13 8 12 27 -1 18 2 26 8 22 7 -4 9 4 6 21 -3 14 -1 26 3 26 5 0 9 3 8 7 -2 15
13 53 20 49 4 -3 7 15 7 40 0 24 6 50 13 56 11 11 12 10 6 -1 -5 -9 -4 -12 3
-7 8 5 8 15 2 32 -6 14 -6 23 -1 20 12 -8 22 20 15 39 -5 11 -2 13 10 9 9 -4
16 -3 14 2 -5 20 12 74 24 72 8 -2 12 9 12 30 0 20 4 31 11 28 6 -2 12 8 13
23 1 14 3 37 5 51 3 14 5 29 6 34 0 5 8 3 16 -4 13 -11 14 -10 9 5 -4 10 -1
20 6 25 18 11 25 54 8 44 -8 -4 -10 -3 -5 2 5 5 13 10 18 10 5 1 12 2 15 3 4
0 1 8 -6 16 -11 13 -10 14 4 9 12 -5 15 -2 9 12 -5 13 -3 15 7 9 8 -5 11 -3 8
6 -3 8 2 20 11 27 9 8 10 11 3 7 -7 -4 -4 8 7 29 14 25 17 36 8 40 -9 3 -8 5
1 5 7 1 10 6 6 13 -5 8 -2 9 10 5 9 -4 15 -3 11 2 -3 5 2 16 10 24 11 12 12
17 2 20 -7 3 -5 6 5 6 13 1 20 13 24 41 4 22 11 37 16 34 6 -4 6 1 0 13 -7 13
-7 24 0 34 8 11 9 11 4 -4 -3 -9 -1 -17 4 -17 9 0 11 9 15 62 0 9 5 21 9 25 5
5 6 1 2 -7 -4 -8 0 -6 9 5 9 11 14 30 12 43 -2 12 0 25 6 29 6 3 7 1 3 -5 -4
-7 -3 -12 3 -12 13 0 25 45 18 64 -4 11 -1 13 10 9 11 -4 14 -2 9 5 -4 7 -3
12 2 12 5 0 8 14 7 31 -2 22 1 29 11 25 11 -4 12 -1 4 13 -7 15 -6 20 6 25 14
5 14 9 3 23 -12 14 -12 16 0 9 9 -6 12 -5 9 5 -3 8 -1 22 4 31 6 13 5 18 -4
18 -6 0 -3 7 8 16 10 8 12 12 4 8 -13 -7 -13 -5 -2 8 9 11 10 18 2 23 -5 3
-10 12 -10 18 0 7 4 6 10 -3 5 -8 12 -12 15 -8 6 5 16 62 18 95 0 7 6 14 12
17 8 3 10 15 7 32 -3 18 -1 25 6 20 6 -3 14 -1 18 5 4 7 3 9 -4 5 -12 -7 -11
58 0 70 4 4 5 -4 3 -16 -2 -12 -1 -20 2 -16 11 11 14 46 4 46 -6 0 -9 9 -8 19
1 12 6 17 17 13 12 -4 12 -2 -2 15 -10 11 -18 24 -18 29 0 5 4 4 8 -3 6 -9 11
-6 21 8 8 15 9 19 1 14 -7 -4 -4 5 6 21 11 15 13 25 7 21 -9 -5 -13 -2 -13 8
0 9 5 13 11 9 8 -4 8 0 0 15 -9 17 -9 20 3 15 11 -4 13 4 12 41 -2 25 2 49 7
52 6 3 7 1 3 -5 -3 -6 -3 -13 1 -15 5 -3 8 19 9 48 0 31 -4 51 -10 48 -5 -4
-6 -1 -1 8 11 17 16 61 6 55 -3 -3 -7 4 -7 14 0 14 4 16 12 9 9 -8 11 -5 7 10
-3 12 -9 19 -12 16 -4 -2 -8 2 -8 10 0 8 4 12 8 9 4 -2 10 0 14 6 3 5 -2 10
-12 11 -10 0 -13 3 -5 6 6 2 12 9 12 14 0 6 -4 8 -8 5 -5 -3 -9 1 -9 9 0 8 4
12 8 10 4 -3 9 2 13 10 3 8 1 17 -5 21 -5 3 -7 14 -4 25 4 10 2 19 -3 19 -5 0
-9 7 -9 15 0 8 4 12 9 9 4 -3 8 0 8 5 0 6 -6 11 -12 11 -9 0 -8 4 2 10 10 6
11 10 3 10 -7 0 -13 5 -13 11 0 5 4 8 8 5 4 -2 8 4 8 14 0 12 -4 16 -11 10 -7
-6 -11 -2 -11 10 0 10 5 16 11 13 5 -2 -1 5 -15 16 -20 17 -21 20 -5 14 18 -6
18 -5 6 10 -7 9 -10 17 -6 17 4 0 2 6 -4 13 -6 8 -8 17 -4 21 11 10 12 37 2
30 -5 -3 -6 -10 -3 -16 4 -7 2 -8 -4 -4 -9 5 -9 13 -2 27 8 14 7 19 -1 19 -8
0 -8 4 1 15 9 10 9 15 1 15 -6 0 -11 7 -11 16 0 9 -5 12 -12 8 -10 -6 -10 -4
0 7 16 17 16 61 0 78 -10 11 -10 13 0 7 8 -5 12 3 12 28 0 20 -4 36 -10 36 -5
0 -10 5 -10 11 0 5 5 7 10 4 6 -3 10 -1 10 4 0 6 -5 11 -11 11 -6 0 -7 5 -2
13 12 19 11 78 -2 74 -6 -3 -11 3 -11 13 0 10 5 16 11 14 6 -3 11 6 12 18 2
18 0 20 -7 8 -8 -13 -10 -12 -10 3 0 9 6 17 13 17 8 0 8 3 -2 9 -13 8 -13 12
0 27 9 11 9 15 2 10 -7 -4 -13 -3 -13 3 0 5 6 12 13 14 10 4 10 6 0 6 -16 1
-17 31 -2 31 6 0 3 7 -5 16 -18 18 -21 34 -5 34 5 0 7 -4 4 -10 -3 -6 -2 -10
4 -10 5 0 9 9 8 20 -1 14 -6 19 -16 15 -10 -4 -9 1 5 16 10 12 13 19 7 15 -14
-8 -18 6 -6 18 11 10 12 37 2 30 -5 -3 -9 4 -9 15 0 12 5 21 11 21 6 0 4 7 -5
15 -15 15 -12 50 4 40 10 -6 5 48 -5 65 -5 9 -4 11 3 6 9 -5 12 12 12 61 0 42
5 74 13 82 10 11 10 14 0 18 -7 3 -13 9 -13 15 0 6 6 8 14 5 15 -6 15 21 0 45
-4 7 -3 8 4 4 7 -4 12 -1 12 8 0 28 -2 31 -14 28 -6 -1 -3 4 8 12 10 8 15 19
11 25 -3 6 1 11 11 11 16 0 16 1 -2 15 -19 15 -19 15 1 8 18 -6 19 -5 5 12 -9
11 -10 16 -2 11 8 -5 12 -1 12 11 0 11 5 24 12 31 9 9 9 12 -2 12 -9 1 -4 7
10 16 14 8 17 13 8 10 -10 -3 -18 -1 -18 4 0 6 5 10 12 10 6 0 3 10 -8 22 -13
15 -13 18 -3 10 14 -10 17 -9 22 8 3 11 0 20 -6 20 -7 0 -7 4 2 9 9 6 14 28
15 59 1 28 4 48 9 45 4 -2 5 -8 2 -13 -3 -5 -2 -11 3 -14 7 -4 8 25 3 77 -1 5
-7 5 -13 1 -8 -5 -7 -1 2 10 18 23 21 44 8 53 -7 4 -8 1 -3 -7 5 -9 4 -11 -4
-6 -9 6 -9 11 1 23 14 18 19 71 7 78 -4 3 -6 -7 -4 -22 2 -16 2 -22 -1 -15 -3
6 -11 9 -16 6 -7 -5 -8 -2 -2 7 11 18 13 59 3 59 -4 0 -5 9 -2 20 3 13 0 20
-8 20 -11 0 -11 2 1 10 13 8 12 10 -4 10 -19 0 -19 0 -1 13 14 11 15 16 5 22
-8 5 -11 4 -7 -2 3 -5 0 -10 -8 -10 -13 0 -13 3 0 17 17 19 20 34 5 25 -6 -4
-7 1 -3 11 5 13 3 15 -7 9 -9 -5 -11 -4 -6 4 4 6 11 9 16 6 5 -3 11 -1 14 4 4
5 1 13 -5 17 -8 5 -9 3 -4 -6 5 -8 4 -11 -3 -6 -6 4 -9 13 -5 21 3 9 -1 15 -8
15 -11 0 -11 3 1 10 8 5 10 10 3 10 -6 0 -10 13 -9 30 1 17 -1 30 -5 30 -4 0
-5 10 -2 22 4 19 3 20 -6 8 -7 -9 -11 -10 -11 -3 0 6 5 15 11 19 8 4 7 9 -2
15 -10 6 -11 9 -1 9 6 0 12 7 12 15 0 8 -6 15 -12 15 -9 0 -8 4 2 10 12 8 12
10 -5 11 l-20 0 20 9 c11 5 14 9 8 9 -7 1 -13 6 -13 12 0 5 4 8 9 5 10 -7 9
20 -2 30 -4 4 -7 16 -7 26 0 10 -6 18 -12 18 -10 0 -9 3 1 9 11 7 11 9 0 14
-10 4 -11 6 -1 6 10 1 9 8 -2 35 -8 19 -12 37 -9 39 9 9 10 57 2 51 -5 -3 -9
0 -9 5 0 6 4 11 9 11 5 0 12 7 15 16 5 14 4 15 -8 5 -11 -9 -16 -9 -22 0 -4 8
-3 9 4 5 12 -7 14 4 15 64 0 14 -3 36 -7 49 -5 13 -4 21 0 18 11 -6 11 89 1
99 -10 10 -9 26 1 20 5 -3 9 1 9 9 0 8 -4 12 -9 9 -4 -3 -8 2 -8 11 0 9 4 14
8 11 5 -3 9 1 9 9 0 8 -4 12 -8 10 -4 -3 -10 2 -13 11 -4 9 -2 13 5 8 7 -4 10
-1 7 7 -3 8 2 20 11 27 14 12 14 13 -1 8 -23 -7 -31 9 -13 24 16 13 21 35 7
26 -5 -3 -9 1 -9 9 0 8 4 12 9 9 11 -7 10 3 -2 26 -9 16 -8 18 5 14 13 -5 14
-2 5 21 -12 32 -13 38 -2 31 12 -7 9 38 -3 47 -6 4 -5 10 4 16 8 5 11 16 8 25
-7 19 9 22 17 4 3 -7 4 -4 3 7 -1 11 -9 23 -17 27 -13 6 -12 7 2 7 10 1 15 8
13 19 -1 9 2 25 7 35 7 13 5 17 -9 18 -16 0 -16 1 1 8 15 6 17 9 6 16 -11 7
-11 10 1 19 19 15 22 35 8 53 -10 11 -10 14 2 11 9 -2 13 4 11 16 -2 10 1 15
7 12 6 -4 8 2 6 14 -2 11 3 27 11 35 9 8 11 15 5 15 -6 0 -11 5 -11 11 0 5 5
7 10 4 9 -6 14 23 13 83 0 13 5 21 11 19 7 -3 12 3 12 13 0 10 -4 16 -8 14 -9
-6 -1 36 8 45 4 3 4 -2 1 -12 -4 -11 -3 -16 3 -12 6 3 10 26 10 51 0 28 4 44
13 44 8 0 7 4 -3 10 -13 9 -7 14 13 11 11 -2 8 6 -10 25 -17 17 -17 17 -1 11
10 -3 20 -2 23 3 4 6 1 10 -6 10 -9 0 -9 4 1 15 6 8 9 19 5 25 -3 5 2 10 12
10 10 0 14 3 8 8 -6 4 -10 13 -9 20 1 6 2 17 3 23 0 5 5 8 10 4 5 -3 13 0 17
6 4 7 3 9 -3 6 -6 -4 -14 0 -17 9 -3 8 -2 13 2 11 4 -2 16 5 26 16 14 14 15
19 4 15 -8 -4 -15 -1 -15 7 0 8 5 13 10 12 5 -1 12 4 15 12 3 10 0 11 -9 5
-12 -7 -12 -5 0 9 7 9 11 23 7 32 -3 8 -2 14 2 14 19 -3 25 2 12 11 -13 8 -12
10 4 10 16 0 17 2 5 17 -12 14 -12 16 0 8 11 -6 13 -3 9 11 -5 21 15 47 28 36
4 -4 4 -1 0 6 -4 7 -12 10 -17 7 -18 -12 -9 7 13 24 16 14 18 20 8 26 -9 5
-11 4 -6 -3 5 -8 1 -10 -10 -5 -15 5 -15 7 0 15 9 5 16 17 16 26 0 10 6 24 13
31 7 9 8 12 0 7 -8 -4 -8 0 0 18 7 13 15 22 19 20 5 -3 8 6 8 19 0 45 12 87
23 80 6 -4 8 0 4 10 -3 10 -2 17 4 17 6 0 7 5 4 10 -3 6 -1 10 6 10 9 0 9 3 0
14 -9 11 -9 16 0 22 8 4 9 3 5 -4 -4 -7 -2 -12 3 -12 10 0 15 21 14 57 0 6 6
9 15 6 9 -4 13 -2 9 4 -4 6 -1 18 7 26 11 11 12 17 3 26 -8 8 -8 11 2 11 8 0
11 6 7 16 -6 14 -4 15 10 3 13 -11 15 -11 14 2 -4 29 0 40 13 33 8 -5 8 -2 -2
9 -11 15 -11 17 2 17 8 0 21 8 28 17 9 11 10 14 2 9 -9 -5 -11 -2 -7 8 3 9 11
14 17 13 7 -1 11 8 11 21 -1 15 3 21 12 18 8 -3 11 2 9 15 -2 10 0 19 4 19 5
0 8 8 7 17 0 10 4 18 11 18 15 0 30 15 14 15 -7 0 -9 5 -6 10 4 6 11 8 16 5 5
-4 9 -1 9 4 0 6 9 20 20 31 12 12 18 26 14 32 -4 7 -3 8 4 4 7 -4 12 -1 12 8
0 9 -5 16 -12 16 -6 0 -8 3 -5 6 4 4 13 1 22 -6 13 -11 14 -10 9 5 -6 14 -4
16 6 10 8 -5 11 -4 6 3 -3 6 7 24 24 40 20 21 26 32 17 36 -6 4 -2 4 11 2 12
-2 20 0 16 5 -3 5 0 9 6 9 6 0 8 5 4 12 -5 7 -2 9 9 5 10 -4 14 -2 11 6 -2 7
3 21 12 32 8 11 13 15 10 9 -3 -6 1 -11 9 -11 7 0 12 8 10 18 -2 10 1 22 7 25
7 5 8 2 3 -7 -4 -8 6 -1 23 15 18 17 32 35 32 40 0 6 -9 0 -20 -14 -11 -14
-20 -20 -20 -14 0 6 12 23 26 37 16 16 23 31 18 39 -6 10 -4 10 9 -1 15 -12
17 -11 17 7 0 12 9 23 21 27 12 4 18 12 15 21 -5 13 6 19 28 15 5 -1 3 5 -4
14 -11 13 -10 14 5 9 13 -5 16 -4 11 4 -4 7 -1 12 9 12 9 0 13 5 10 10 -3 6 1
10 9 10 19 0 20 11 4 30 -11 12 -10 12 5 0 15 -11 20 -11 30 0 7 7 7 10 1 7
-6 -3 -11 0 -11 7 0 8 7 12 15 8 10 -3 13 -1 8 6 -4 7 -2 12 4 12 6 0 8 5 4
12 -5 7 -2 9 9 5 12 -4 14 -2 10 10 -4 11 -2 14 5 9 7 -4 10 -2 6 7 -2 7 3 23
13 33 10 11 14 13 8 4 -9 -13 -8 -13 8 -1 9 7 17 22 17 33 0 11 5 16 11 13 6
-4 13 2 16 13 3 13 11 18 19 15 8 -3 14 1 14 10 0 9 7 20 16 25 9 5 15 12 15
15 -2 17 0 19 14 7 13 -11 14 -10 10 3 -7 17 33 60 48 50 5 -3 3 5 -4 18 -11
22 -11 23 4 10 15 -11 17 -11 17 2 0 9 4 19 10 22 6 4 7 -1 4 -12 -5 -17 -5
-17 9 -1 8 10 17 15 21 11 4 -4 9 3 13 16 3 14 11 20 20 17 8 -3 12 -2 9 3 -8
12 33 63 45 56 5 -4 9 4 9 17 0 13 3 18 8 12 5 -9 10 -8 19 1 10 11 10 14 0
18 -7 3 2 8 18 12 40 10 57 25 50 44 -3 11 0 9 11 -4 11 -14 15 -15 13 -5 -1
8 1 23 6 33 6 15 10 16 17 5 7 -9 8 -7 5 9 -4 16 -1 21 13 18 12 -2 20 4 24
20 5 18 11 22 23 18 11 -4 14 -3 9 5 -4 8 0 12 11 12 15 0 16 2 3 10 -13 9 -7
14 13 11 4 0 7 6 7 14 0 8 5 15 11 15 5 0 7 -5 3 -12 -4 -6 -3 -8 4 -4 6 3 9
15 7 26 -3 13 1 17 11 13 9 -3 14 1 14 12 0 10 5 13 12 9 8 -5 9 -2 5 10 -5
12 1 19 20 27 22 8 24 12 13 19 -13 8 -12 10 3 10 10 0 21 8 24 18 4 9 11 20
17 24 7 5 7 8 -1 8 -7 0 -13 4 -13 9 0 6 9 8 20 6 11 -2 18 0 15 6 -4 5 -1 9
5 9 6 0 8 5 5 10 -3 6 -1 10 5 10 6 0 8 5 4 12 -5 8 -2 9 10 5 14 -5 17 -3 12
8 -4 10 1 15 15 15 16 0 20 5 16 19 -3 14 0 17 16 13 14 -4 18 -1 15 9 -3 8
-11 13 -17 11 -7 -1 -10 2 -6 8 4 6 14 9 23 8 9 -2 16 3 15 10 -2 6 1 12 6 12
6 0 8 9 6 21 -3 15 0 19 10 15 9 -3 12 0 8 9 -3 8 2 18 11 21 9 3 13 11 9 17
-4 6 0 8 9 5 8 -4 15 -1 15 7 0 7 -7 11 -16 8 -9 -2 -5 2 8 10 15 9 19 16 11
19 -9 3 -7 8 6 18 14 12 16 12 9 1 -6 -10 -4 -12 4 -6 7 4 11 16 8 26 -3 11
-1 19 4 19 4 0 5 8 2 18 -6 15 -5 15 10 3 15 -12 17 -12 11 4 -5 13 -4 16 5
11 8 -6 11 -2 9 10 -2 12 3 19 12 18 12 -1 15 7 14 28 -2 25 0 27 14 16 14
-12 14 -10 3 11 -8 15 -9 21 -2 17 6 -4 11 -2 11 4 0 7 7 9 16 6 14 -5 15 -4
4 9 -12 14 -7 20 14 16 5 -1 3 5 -4 14 -11 13 -10 15 4 9 9 -4 16 -3 15 2 -5
27 4 46 24 54 12 5 16 9 9 9 -7 1 -10 6 -7 11 4 6 10 8 15 5 12 -7 24 40 15
55 -3 6 -3 10 2 9 21 -4 34 2 27 13 -5 8 -2 9 11 4 15 -5 16 -4 6 8 -9 11 -9
16 0 22 8 5 10 3 5 -7 -4 -8 -1 -5 8 5 8 10 13 22 11 27 -3 4 4 5 15 2 11 -3
20 0 20 6 0 6 -6 11 -12 11 -9 0 -8 3 2 9 8 6 18 7 22 5 4 -3 8 2 8 10 0 15
12 21 34 17 5 -1 3 5 -4 14 -7 9 -9 15 -4 13 5 -2 11 2 13 7 3 6 11 16 18 23
7 8 10 18 7 24 -5 7 -2 8 6 3 10 -6 12 -4 7 9 -5 12 1 19 19 26 21 8 24 13 15
24 -10 12 -7 14 14 12 19 -3 23 0 15 9 -8 9 -6 14 6 19 9 3 14 13 10 21 -3 8
0 14 7 12 7 -1 11 4 9 11 -1 6 3 12 8 12 6 0 15 12 20 26 7 16 14 23 22 18 9
-5 8 -2 -1 9 -8 10 -11 20 -7 24 3 3 6 1 6 -6 0 -7 4 -10 10 -6 5 3 6 13 3 22
-4 11 -3 14 5 9 8 -5 10 -2 6 8 -4 10 -1 16 8 16 7 0 19 10 27 23 l14 22 -24
-19 c-13 -11 -10 -5 8 12 20 20 30 39 28 51 -3 15 0 18 12 14 13 -5 15 -2 10
12 -7 16 -5 16 9 4 16 -13 16 -12 5 9 -9 18 -9 22 1 20 7 -2 14 7 16 20 2 12
12 28 22 34 15 9 16 15 8 26 -6 7 -7 12 -2 10 15 -4 55 22 49 33 -4 5 1 9 9 9
8 0 18 5 22 12 5 7 3 8 -7 3 -11 -7 -12 -6 -2 7 7 8 12 17 10 19 -1 2 4 -2 11
-10 10 -13 12 -13 13 0 1 8 1 17 0 22 0 4 6 7 15 7 9 0 12 5 8 12 -5 7 -2 9 9
5 11 -4 14 -2 10 9 -3 8 1 14 11 14 19 0 21 11 4 29 -8 9 -9 12 -1 7 16 -9 43
3 43 20 0 8 9 14 21 14 11 0 18 4 14 9 -3 5 0 13 6 17 8 4 9 3 5 -4 -10 -16 2
-15 19 2 8 7 11 17 7 20 -3 4 2 4 12 0 13 -5 17 -4 12 4 -3 6 -2 13 4 17 6 4
7 11 4 17 -4 7 -2 8 5 4 6 -4 8 -12 5 -18 -4 -7 -2 -8 4 -4 7 4 12 16 12 28 0
18 2 19 17 7 11 -10 14 -10 9 -1 -4 7 -2 12 4 12 6 0 9 4 6 8 -3 5 4 14 14 22
10 8 16 18 13 24 -4 6 1 7 13 2 10 -4 15 -4 12 0 -4 3 0 13 8 21 8 8 12 18 9
23 -3 4 3 7 13 6 10 0 16 6 16 16 -1 10 1 17 5 16 3 0 14 0 25 1 15 1 16 4 7
15 -9 11 -9 16 0 22 8 4 9 3 5 -4 -14 -23 15 -12 41 16 15 15 22 20 18 12 -8
-13 -6 -13 8 -1 9 7 14 17 11 22 -3 5 1 6 9 3 8 -3 18 0 23 7 4 7 3 10 -3 6
-6 -4 -13 -1 -16 7 -4 10 0 12 15 8 17 -4 20 -2 14 13 -6 16 -4 16 11 4 10 -7
15 -10 12 -6 -8 10 33 57 49 57 6 0 14 4 17 10 3 6 -1 7 -12 4 -17 -5 -17 -5
0 6 9 6 22 8 29 4 7 -4 8 -3 4 4 -4 7 -1 12 9 12 9 0 13 5 9 11 -4 7 -1 10 7
7 17 -6 38 13 32 28 -2 6 3 11 11 11 8 0 13 -4 10 -8 -2 -4 -1 -10 4 -13 4 -2
9 5 9 16 1 12 7 26 13 32 8 8 9 6 4 -8 -5 -13 -4 -17 4 -12 7 4 12 15 12 24 0
15 2 15 10 2 7 -11 10 -11 10 -2 0 8 5 10 13 6 9 -6 9 -5 0 8 -16 19 -5 32 14
16 10 -8 12 -8 8 4 -4 10 5 20 27 31 18 8 35 14 39 11 4 -2 10 3 13 12 4 10 2
13 -6 8 -7 -4 -8 -3 -4 4 4 6 14 8 23 5 10 -4 14 -2 10 4 -4 6 3 8 17 6 13 -3
27 1 31 8 6 8 4 10 -6 4 -8 -4 -6 1 4 11 15 16 19 17 27 4 9 -14 15 -7 11 14
-1 5 4 6 11 4 16 -5 49 27 40 38 -4 5 1 2 11 -5 16 -12 22 -8 18 12 -1 5 3 5
9 2 6 -4 18 1 26 11 13 18 14 18 9 -1 -5 -16 -3 -16 6 3 7 12 19 22 27 22 8 0
21 8 28 17 7 10 18 18 26 19 7 0 23 2 36 2 13 1 22 9 22 18 0 8 5 12 10 9 6
-3 10 -2 10 4 0 6 7 7 17 4 12 -5 14 -3 8 8 -8 12 -6 12 8 1 14 -12 16 -11 12
7 -2 14 1 18 11 14 8 -3 14 0 14 7 0 10 3 10 15 0 15 -12 20 -4 16 22 0 4 6 5
14 2 9 -4 15 0 15 7 0 12 2 12 9 0 7 -10 11 -9 22 7 8 10 19 21 24 23 6 2 9 7
7 12 -1 4 3 6 10 5 7 -2 12 3 13 9 0 7 11 20 24 30 13 9 21 11 17 5 -3 -6 -2
-13 4 -17 5 -3 10 1 10 9 0 9 5 16 10 16 31 0 60 17 60 34 0 9 8 12 23 9 15
-3 18 -2 9 5 -10 7 -9 12 4 23 16 12 17 12 9 -1 -5 -9 1 -7 15 5 13 11 21 15
17 9 -3 -6 0 -11 8 -11 7 0 12 8 10 18 -2 10 1 22 7 25 7 4 8 2 4 -4 -4 -7 -2
-12 3 -12 6 0 12 5 12 10 1 6 3 15 4 20 1 6 3 13 4 16 0 4 7 1 15 -5 11 -9 14
-8 12 6 0 11 5 17 16 17 10 -1 15 2 12 7 -3 5 0 9 6 9 6 0 8 6 4 13 -6 10 -4
10 7 0 20 -19 33 -16 18 5 -7 9 -9 14 -5 10 5 -4 15 0 23 10 8 9 11 11 7 3 -5
-10 -3 -12 5 -7 7 5 10 14 7 22 -3 8 -2 13 2 13 4 -1 14 -1 22 0 13 1 13 2 0
11 -13 8 -12 10 4 10 16 0 17 2 5 17 -10 12 -11 15 -1 9 7 -4 19 -2 28 4 12
10 12 16 2 28 -10 13 -10 14 0 8 7 -4 15 -1 18 8 3 9 11 13 18 9 6 -3 8 -3 4
2 -4 4 -2 15 5 23 10 13 9 14 -3 7 -8 -4 -5 2 8 14 12 12 20 26 17 32 -4 5 -1
9 5 9 6 0 8 5 5 10 -3 6 2 10 11 10 13 0 15 3 7 11 -8 8 -2 19 22 41 20 17 32
35 28 44 -3 8 0 14 6 14 6 0 11 9 11 21 0 15 4 19 16 15 15 -6 15 -4 3 11 -9
11 -10 14 -1 9 12 -7 15 2 13 34 0 10 1 11 5 3 9 -19 21 -15 27 8 4 14 10 18
19 13 10 -6 9 -3 -1 10 -8 9 -10 16 -5 15 21 -4 28 2 14 11 -10 6 -11 10 -2
10 6 0 12 9 12 21 0 14 5 19 14 16 10 -4 13 -1 9 8 -3 8 -10 12 -17 8 -6 -3
-3 3 7 14 11 12 14 24 9 27 -6 3 -8 15 -5 26 4 15 0 20 -13 20 -16 0 -17 2 -4
10 11 7 11 10 2 10 -7 0 -10 5 -7 10 6 9 -1 12 -22 9 -3 0 -10 6 -15 15 -5 9
-13 14 -19 11 -5 -3 -6 1 -3 10 9 23 -15 48 -33 34 -11 -10 -12 -8 -6 7 6 17
5 17 -10 5 -15 -12 -17 -12 -11 4 5 13 4 16 -4 11 -7 -4 -12 -2 -12 3 0 6 -3
10 -7 9 -5 -1 -25 3 -46 10 -21 6 -44 9 -52 6 -7 -3 -16 -1 -20 5 -3 7 0 8 9
5 9 -3 16 -2 16 3 0 4 -22 8 -49 8 -27 0 -47 -3 -44 -8 2 -4 9 -4 15 -1 7 4 8
2 4 -5 -6 -8 -12 -9 -20 -2 -7 6 -16 8 -20 4 -4 -4 -4 0 -1 8 4 10 0 16 -10
16 -9 0 -14 -6 -11 -13 3 -8 0 -11 -10 -7 -7 3 -14 9 -14 14 0 5 -5 9 -11 9
-5 0 -8 -4 -5 -9 3 -5 0 -11 -8 -14 -8 -3 -13 1 -12 11 0 9 -3 17 -9 17 -5 0
-15 4 -22 8 -6 4 -14 3 -18 -3 -3 -5 -11 -10 -16 -10 -6 0 -7 6 -3 13 6 9 5 9
-7 0 -12 -10 -18 -10 -28 0 -9 9 -14 9 -21 -2 -4 -8 -18 -15 -29 -16 -11 -1
-18 2 -15 7 4 5 13 7 21 4 8 -4 11 -1 8 5 -4 6 -14 8 -22 5 -8 -3 -23 -1 -33
4 -16 8 -18 8 -14 -5 3 -8 11 -12 17 -8 6 3 7 1 3 -6 -6 -9 -11 -9 -23 1 -19
16 -67 23 -58 8 3 -5 1 -10 -4 -10 -6 0 -11 6 -11 13 0 8 -4 7 -10 -3 -5 -8
-10 -10 -10 -5 0 6 -10 16 -22 24 -22 13 -23 13 -5 -6 14 -16 15 -20 2 -20 -8
0 -15 5 -15 10 0 5 -8 3 -17 -4 -12 -10 -15 -11 -9 -1 6 9 -1 13 -26 12 -53 0
-68 3 -68 14 0 6 -5 4 -10 -4 -6 -10 -10 -11 -10 -2 0 6 -12 12 -26 12 -17 0
-23 -4 -19 -12 4 -7 -2 -3 -13 8 -19 22 -46 24 -114 10 -22 -5 -28 -3 -28 11
0 15 2 16 10 3 5 -8 10 -10 10 -4 0 18 -12 24 -31 13 -22 -11 -25 0 -6 21 10
12 9 12 -3 3 -8 -6 -25 -9 -38 -7 -13 2 -21 0 -18 -4 3 -5 -1 -9 -9 -9 -8 0
-11 5 -8 10 4 7 -1 7 -13 2 -10 -4 -27 -7 -37 -7 -9 0 -15 -3 -12 -8 3 -6 -1
-7 -10 -3 -12 4 -13 8 -5 13 8 5 5 9 -8 12 -11 3 -26 1 -33 -4 -10 -7 -9 -8 6
-3 17 5 18 4 6 -7 -11 -11 -15 -10 -24 4 -10 15 -14 15 -51 -3 -23 -11 -33
-14 -23 -6 24 20 22 22 -17 22 -19 0 -32 -4 -29 -8 3 -5 12 -6 20 -3 8 3 11 2
8 -3 -6 -10 -51 -8 -62 2 -14 15 -25 6 -12 -10 12 -16 12 -17 -2 -6 -9 7 -20
9 -24 5 -5 -4 -4 -1 0 7 6 11 4 13 -11 6 -10 -4 -27 -7 -37 -7 -9 0 -15 -3
-12 -9 10 -15 -2 -10 -16 8 -12 14 -12 16 0 8 9 -5 12 -4 7 3 -4 6 -13 9 -22
5 -12 -4 -12 -8 -2 -22 12 -14 11 -15 -5 -2 -16 13 -20 13 -28 0 -7 -11 -9
-11 -9 0 0 7 -6 11 -15 7 -9 -3 -15 0 -15 10 0 8 -4 13 -10 9 -5 -3 -6 -13 -3
-22 6 -15 5 -16 -9 -3 -9 8 -14 18 -11 22 2 4 -3 5 -11 2 -9 -3 -13 -11 -9
-17 3 -6 1 -7 -6 -3 -6 4 -19 2 -27 -5 -8 -7 -14 -8 -13 -3 4 21 -2 28 -11 14
-8 -13 -10 -12 -10 4 0 11 -3 16 -7 12 -5 -4 -8 -13 -8 -18 0 -6 -7 -13 -15
-15 -12 -4 -12 -3 -2 5 11 8 11 10 -1 15 -8 3 -25 -2 -38 -11 -23 -15 -23 -15
-9 3 14 17 13 18 -5 11 -31 -12 -65 -14 -71 -5 -3 5 -10 9 -16 9 -6 0 -5 -7 3
-17 12 -16 12 -17 -2 -6 -9 7 -20 9 -24 5 -5 -4 -4 -1 0 7 6 11 4 13 -11 6
-10 -4 -27 -7 -37 -7 -10 0 -15 -4 -11 -10 4 -7 2 -8 -5 -4 -6 4 -9 11 -6 16
3 4 -2 10 -10 13 -10 4 -12 1 -9 -11 5 -16 4 -16 -7 0 -12 15 -14 15 -32 -5
l-19 -22 6 25 7 25 -22 -25 c-12 -14 -20 -18 -16 -9 4 12 -1 17 -19 17 -16 0
-22 -4 -17 -12 5 -7 0 -3 -9 7 -10 11 -18 14 -18 8z m894 -19 c2 -4 -4 -8 -14
-8 -10 0 -16 4 -14 8 3 4 9 8 14 8 5 0 11 -4 14 -8z m187 -15 c-10 -9 -11 -8
-5 6 3 10 9 15 12 12 3 -3 0 -11 -7 -18z m-1201 3 c0 -5 -5 -10 -11 -10 -5 0
-7 5 -4 10 3 6 8 10 11 10 2 0 4 -4 4 -10z m25 1 c3 -5 1 -12 -5 -16 -5 -3
-10 1 -10 9 0 18 6 21 15 7z m1325 -15 c0 -2 -7 -7 -16 -10 -8 -3 -12 -2 -9 4
6 10 25 14 25 6z m11 -19 c-10 -9 -11 -8 -5 6 3 10 9 15 12 12 3 -3 0 -11 -7
-18z m-1457 -15 c2 -4 -5 -9 -17 -9 -17 -2 -19 0 -7 7 18 12 18 12 24 2z
m2004 -27 c-3 -3 -9 2 -12 12 -6 14 -5 15 5 6 7 -7 10 -15 7 -18z m-2355 -52
c-4 -10 -9 -10 -18 -3 -6 5 -16 6 -20 2 -5 -4 -6 -2 -2 3 8 16 46 13 40 -2z
m60 -1 c-4 -9 -9 -10 -16 -3 -7 7 -15 7 -26 -2 -14 -10 -14 -10 -4 3 15 20 53
21 46 2z m-283 -33 c0 -4 -9 -7 -19 -6 -11 0 -18 4 -16 7 6 9 35 8 35 -1z
m-503 -34 c0 -8 -4 -12 -9 -9 -5 3 -6 10 -3 15 9 13 12 11 12 -6z m-267 -30
c0 -2 -6 -8 -13 -14 -10 -8 -14 -7 -14 2 0 8 6 14 14 14 7 0 13 -1 13 -2z
m-495 -253 c-3 -3 -11 0 -18 7 -9 10 -8 11 6 5 10 -3 15 -9 12 -12z m-35 -32
c0 -5 -6 -9 -12 -7 -7 1 -12 -6 -11 -17 1 -13 -2 -15 -10 -7 -7 7 -6 15 3 26
14 17 30 20 30 5z m4205 -90 c-10 -11 -21 -18 -23 -15 -3 3 3 12 14 20 27 20
30 18 9 -5z m-4588 -255 c0 -8 -4 -12 -9 -9 -5 3 -6 10 -3 15 9 13 12 11 12
-6z m-87 -70 c0 -2 -9 -3 -19 -2 -11 0 -18 5 -15 9 4 6 34 0 34 -7z m-123 -79
c0 -8 -6 -12 -15 -9 -11 5 -11 7 0 14 7 5 13 9 14 9 0 0 1 -6 1 -14z m-112
-66 c3 -5 1 -10 -4 -10 -6 0 -11 5 -11 10 0 6 2 10 4 10 3 0 8 -4 11 -10z
m-540 -60 c3 -5 1 -10 -4 -10 -6 0 -11 5 -11 10 0 6 2 10 4 10 3 0 8 -4 11
-10z m309 -2 c-3 -4 -9 -8 -15 -8 -5 0 -9 4 -9 8 0 5 7 9 15 9 8 0 12 -4 9 -9z
m-660 -66 c3 -5 -1 -9 -9 -9 -8 0 -12 4 -9 9 3 4 7 8 9 8 2 0 6 -4 9 -8z
m-167 -65 c0 -8 -6 -14 -14 -14 -9 0 -10 4 -2 14 6 7 12 13 14 13 1 0 2 -6 2
-13z m-74 -22 c-3 -9 -8 -14 -10 -11 -3 3 -2 9 2 15 9 16 15 13 8 -4z m-23
-11 c0 -8 -19 -13 -24 -6 -3 5 1 9 9 9 8 0 15 -2 15 -3z m-799 -371 c12 -16
12 -17 -2 -6 -9 7 -20 9 -24 5 -5 -4 -5 -1 -1 6 9 16 11 15 27 -5z m-125 -48
c-9 -9 -16 -13 -16 -8 0 12 22 34 28 28 2 -2 -3 -11 -12 -20z m-110 -40 c-20
-15 -36 -19 -36 -10 0 5 38 23 50 24 3 0 -4 -6 -14 -14z m-214 -102 c-6 -2
-10 -8 -8 -12 3 -4 -1 -8 -9 -8 -11 0 -12 4 -4 14 6 7 17 13 23 12 7 0 6 -2
-2 -6z m-95 -58 c0 -8 -4 -12 -9 -9 -5 3 -6 10 -3 15 9 13 12 11 12 -6z m-249
-131 c-17 -17 -72 -29 -63 -14 3 5 11 7 18 4 7 -2 21 2 32 10 27 20 33 20 13
0z m-277 -161 c11 -15 11 -16 0 -6 -7 6 -20 9 -29 6 -10 -4 -13 -2 -8 5 10 17
21 15 37 -5z m-159 -85 c-7 -7 -12 -8 -12 -2 0 14 12 26 19 19 2 -3 -1 -11 -7
-17z m-72 -52 c0 -3 -4 -8 -10 -11 -5 -3 -10 -1 -10 4 0 6 5 11 10 11 6 0 10
-2 10 -4z m5777 -378 c-3 -8 -6 -5 -6 6 -1 11 2 17 5 13 3 -3 4 -12 1 -19z
m-6310 -313 c0 -8 -4 -12 -9 -9 -5 3 -6 10 -3 15 9 13 12 11 12 -6z m-193
-463 c3 -5 -1 -9 -9 -9 -8 0 -12 4 -9 9 3 4 7 8 9 8 2 0 6 -4 9 -8z m-39 -100
c-3 -3 -11 0 -18 7 -9 10 -8 11 6 5 10 -3 15 -9 12 -12z m-71 -117 c-4 -8 -10
-15 -15 -15 -4 0 -6 7 -3 15 4 8 10 15 15 15 4 0 6 -7 3 -15z m-18 -57 c4 -7
3 -8 -4 -4 -7 4 -12 2 -12 -3 0 -6 -5 -11 -11 -11 -8 0 -8 5 1 15 15 18 17 18
26 3z m-36 -72 c0 -2 -7 -7 -16 -10 -8 -3 -12 -2 -9 4 6 10 25 14 25 6z m-170
-206 c0 -5 -2 -10 -4 -10 -3 0 -8 5 -11 10 -3 6 -1 10 4 10 6 0 11 -4 11 -10z
m5790 -106 c0 -8 -19 -13 -24 -6 -3 5 1 9 9 9 8 0 15 -2 15 -3z m-6250 -204
c0 -5 -5 -10 -11 -10 -5 0 -7 5 -4 10 3 6 8 10 11 10 2 0 4 -4 4 -10z m-477
-305 c-3 -9 -8 -14 -10 -11 -3 3 -2 9 2 15 9 16 15 13 8 -4z m-209 -184 c3 -5
-1 -11 -9 -14 -9 -4 -12 -1 -8 9 6 16 10 17 17 5z m-638 -903 c4 -7 4 -10 -1
-6 -11 11 -36 -12 -28 -25 4 -6 1 -7 -6 -3 -9 6 -8 13 5 27 20 22 21 23 30 7z
m-36 -58 c0 -5 -5 -10 -11 -10 -5 0 -7 5 -4 10 3 6 8 10 11 10 2 0 4 -4 4 -10z
m-29 -53 c-6 -8 -7 -18 -3 -22 4 -5 1 -5 -5 -1 -7 4 -13 2 -13 -3 0 -6 -5 -11
-12 -11 -6 0 -1 11 12 25 25 26 41 35 21 12z m-507 -1485 c3 -5 -1 -9 -9 -9
-8 0 -12 4 -9 9 3 4 7 8 9 8 2 0 6 -4 9 -8z m6573 -37 c0 -8 -4 -12 -9 -9 -5
3 -6 10 -3 15 9 13 12 11 12 -6z m0 -160 c0 -8 -4 -12 -9 -9 -5 3 -6 10 -3 15
9 13 12 11 12 -6z m-6726 -198 c-10 -9 -11 -8 -5 6 3 10 9 15 12 12 3 -3 0
-11 -7 -18z m-76 -147 c-3 -5 -11 -10 -16 -10 -6 0 -7 5 -4 10 3 6 11 10 16
10 6 0 7 -4 4 -10z m-219 -442 c4 -7 4 -10 -1 -6 -4 4 -15 2 -24 -5 -14 -11
-14 -10 -2 6 16 20 18 21 27 5z m-236 -398 c0 -5 -5 -10 -11 -10 -5 0 -7 5 -4
10 3 6 8 10 11 10 2 0 4 -4 4 -10z m7226 -476 c1 -9 0 -13 -4 -10 -3 4 -7 14
-8 22 -1 9 0 13 4 10 3 -4 7 -14 8 -22z m-7516 -24 c0 -5 -5 -10 -11 -10 -5 0
-7 5 -4 10 3 6 8 10 11 10 2 0 4 -4 4 -10z m7517 -445 c0 -8 -4 -12 -9 -9 -4
3 -8 9 -8 15 0 5 4 9 8 9 5 0 9 -7 9 -15z m-7693 -101 c3 -8 2 -12 -4 -9 -6 3
-10 10 -10 16 0 14 7 11 14 -7z m-99 -284 c3 -5 -1 -10 -10 -10 -9 0 -13 5
-10 10 3 6 8 10 10 10 2 0 7 -4 10 -10z m-25 -110 c6 -11 8 -20 6 -20 -3 0
-10 9 -16 20 -6 11 -8 20 -6 20 3 0 10 -9 16 -20z m-23 -65 c0 -8 -4 -12 -9
-9 -5 3 -6 10 -3 15 9 13 12 11 12 -6z m-67 -276 c0 -5 -4 -9 -8 -9 -5 0 -9 7
-9 15 0 8 4 12 9 9 4 -3 8 -9 8 -15z m-77 -234 c-7 -21 -12 -19 -10 4 0 11 5
18 9 15 4 -3 5 -11 1 -19z m-118 -805 c-3 -5 -12 -10 -18 -10 -7 0 -6 4 3 10
19 12 23 12 15 0z m-5 -41 c0 -5 -4 -9 -8 -9 -5 0 -9 7 -9 15 0 8 4 12 9 9 4
-3 8 -9 8 -15z m-1 -32 c8 -10 7 -14 -2 -14 -8 0 -14 6 -14 14 0 7 1 13 2 13
2 0 8 -6 14 -13z m-7 -124 c-6 -2 -9 -10 -6 -15 4 -7 2 -8 -5 -4 -13 9 -5 26
12 25 9 0 8 -2 -1 -6z m4 -128 c-3 -23 -12 -26 -13 -5 -1 11 2 20 7 20 4 0 7
-7 6 -15z m-1 -76 c1 -11 -1 -22 -5 -24 -3 -2 -6 9 -6 25 0 33 9 32 11 -1z
m-64 -1332 c-10 -9 -11 -8 -5 6 3 10 9 15 12 12 3 -3 0 -11 -7 -18z m329 -927
c0 -5 -2 -10 -4 -10 -3 0 -8 5 -11 10 -3 6 -1 10 4 10 6 0 11 -4 11 -10z
m5300 -214 c0 -3 -4 -8 -10 -11 -5 -3 -10 -1 -10 4 0 6 5 11 10 11 6 0 10 -2
10 -4z m-4243 -431 c0 -8 -4 -12 -9 -9 -4 3 -8 9 -8 15 0 5 4 9 8 9 5 0 9 -7
9 -15z m3363 -35 c0 -5 -2 -10 -4 -10 -3 0 -8 5 -11 10 -3 6 -1 10 4 10 6 0
11 -4 11 -10z m-2962 -115 c-3 -3 -9 2 -12 12 -6 14 -5 15 5 6 7 -7 10 -15 7
-18z m236 17 c3 -5 -1 -9 -9 -9 -8 0 -12 4 -9 9 3 4 7 8 9 8 2 0 6 -4 9 -8z"/>
<path d="M13466 16478 c3 -5 10 -6 15 -3 13 9 11 12 -6 12 -8 0 -12 -4 -9 -9z"/>
<path d="M13586 16478 c3 -5 10 -6 15 -3 13 9 11 12 -6 12 -8 0 -12 -4 -9 -9z"/>
<path d="M13946 16478 c3 -5 10 -6 15 -3 13 9 11 12 -6 12 -8 0 -12 -4 -9 -9z"/>
<path d="M14266 16478 c3 -5 10 -6 15 -3 13 9 11 12 -6 12 -8 0 -12 -4 -9 -9z"/>
<path d="M14556 16443 c-6 -14 -5 -15 5 -6 7 7 10 15 7 18 -3 3 -9 -2 -12 -12z"/>
<path d="M15307 16369 c7 -7 15 -10 18 -7 3 3 -2 9 -12 12 -14 6 -15 5 -6 -5z"/>
<path d="M15486 16258 c3 -5 10 -6 15 -3 13 9 11 12 -6 12 -8 0 -12 -4 -9 -9z"/>
<path d="M11345 16090 c-4 -6 -10 -8 -14 -6 -4 3 -8 -1 -8 -9 0 -12 4 -12 21
2 12 10 23 19 25 20 2 2 -1 3 -7 3 -6 0 -14 -5 -17 -10z"/>
<path d="M14841 15291 c-8 -5 -9 -11 -3 -15 5 -3 12 1 16 9 6 17 6 18 -13 6z"/>
<path d="M9475 15229 c-4 -6 -5 -12 -2 -15 2 -3 7 2 10 11 7 17 1 20 -8 4z"/>
<path d="M9200 15109 c0 -5 5 -7 10 -4 6 3 10 8 10 11 0 2 -4 4 -10 4 -5 0
-10 -5 -10 -11z"/>
<path d="M14515 15099 c-4 -6 -4 -13 -1 -16 3 -4 6 -1 6 6 0 7 5 9 12 5 7 -4
8 -3 4 4 -9 15 -13 15 -21 1z"/>
<path d="M8361 14747 c-1 -11 -6 -15 -13 -11 -7 5 -8 3 -3 -5 10 -16 29 2 22
21 -4 8 -6 7 -6 -5z"/>
<path d="M6864 13812 c3 -5 0 -13 -6 -15 -9 -4 -10 -6 -1 -6 17 -1 25 16 12
25 -7 4 -9 3 -5 -4z"/>
<path d="M6766 13626 c6 -15 4 -17 -6 -11 -9 6 -11 4 -5 -4 5 -9 10 -10 18 -2
8 8 7 14 -2 24 -10 10 -11 8 -5 -7z"/>
<path d="M6650 13400 c0 -5 5 -10 11 -10 5 0 7 5 4 10 -3 6 -8 10 -11 10 -2 0
-4 -4 -4 -10z"/>
<path d="M6180 12450 c-9 -6 -10 -10 -3 -10 6 0 15 5 18 10 8 12 4 12 -15 0z"/>
<path d="M5122 11730 c-18 -16 -28 -30 -24 -30 5 0 19 11 32 25 12 13 26 22
31 20 4 -3 10 -1 14 5 14 22 -24 8 -53 -20z"/>
<path d="M4380 10760 c-9 -6 -10 -10 -3 -10 6 0 15 5 18 10 8 12 4 12 -15 0z"/>
<path d="M10746 10715 c-9 -26 -7 -32 5 -12 6 10 9 21 6 23 -2 3 -7 -2 -11
-11z"/>
<path d="M4180 10369 c0 -5 -4 -8 -9 -4 -5 3 -12 1 -15 -4 -8 -13 22 -7 36 7
9 9 9 12 0 12 -7 0 -12 -5 -12 -11z"/>
<path d="M10455 9680 c3 -5 8 -10 11 -10 2 0 4 5 4 10 0 6 -5 10 -11 10 -5 0
-7 -4 -4 -10z"/>
<path d="M3913 9665 c0 -8 4 -12 9 -9 5 3 6 10 3 15 -9 13 -12 11 -12 -6z"/>
<path d="M3876 9447 c3 -10 9 -15 12 -12 3 3 0 11 -7 18 -10 9 -11 8 -5 -6z"/>
<path d="M3825 9230 c-3 -5 -4 -14 -1 -19 4 -5 1 -12 -4 -14 -6 -3 -5 -4 1 -3
7 1 13 12 14 24 2 24 -1 27 -10 12z"/>
<path d="M3385 8220 c-3 -5 -2 -10 4 -10 5 0 13 5 16 10 3 6 2 10 -4 10 -5 0
-13 -4 -16 -10z"/>
<path d="M2884 7362 c3 -5 0 -13 -6 -15 -9 -4 -10 -6 -1 -6 17 -1 25 16 12 25
-7 4 -9 3 -5 -4z"/>
<path d="M2165 3099 c-4 -6 -5 -12 -2 -15 2 -3 7 2 10 11 7 17 1 20 -8 4z"/>
<path d="M8885 2770 c-3 -5 -1 -10 4 -10 6 0 11 5 11 10 0 6 -2 10 -4 10 -3 0
-8 -4 -11 -10z"/>
<path d="M7275 1669 c-4 -6 -5 -12 -2 -15 2 -3 7 2 10 11 7 17 1 20 -8 4z"/>
<path d="M6567 1479 c7 -7 15 -10 18 -7 3 3 -2 9 -12 12 -14 6 -15 5 -6 -5z"/>
</g>
</svg>
